<?xml version="1.0" standalone="no"?>
<!DOCTYPE svg PUBLIC "-//W3C//DTD SVG 20010904//EN"
 "http://www.w3.org/TR/2001/REC-SVG-20010904/DTD/svg10.dtd">
<svg version="1.0" xmlns="http://www.w3.org/2000/svg"
 width="642.000000pt" height="642.000000pt" viewBox="0 0 642.000000 642.000000"
 preserveAspectRatio="xMidYMid meet">
<metadata>
Created by potrace 1.14, written by Peter Selinger 2001-2017
</metadata>
<g transform="translate(0.000000,642.000000) scale(0.100000,-0.100000)"
fill="#000000" stroke="none">
<path d="M2150 6223 c-66 -6 -108 -24 -115 -50 -15 -63 78 -103 159 -69 36 15
37 17 34 62 -3 52 -16 62 -78 57z"/>
<path d="M3429 5858 c-15 -10 -14 -13 1 -28 9 -9 30 -20 46 -24 16 -4 41 -22
56 -39 l27 -32 -21 62 c-15 44 -27 63 -42 67 -30 8 -49 6 -67 -6z"/>
<path d="M3539 5832 c6 -12 16 -24 22 -28 8 -4 8 -1 0 14 -6 12 -16 24 -22 28
-8 4 -8 1 0 -14z"/>
<path d="M3560 5846 c0 -2 12 -25 26 -50 15 -26 24 -50 20 -53 -3 -3 -10 6
-15 21 -18 45 -21 28 -4 -21 12 -35 13 -50 4 -64 -6 -10 -11 -26 -11 -35 0
-26 -41 -76 -57 -70 -8 4 -11 1 -7 -5 4 -6 0 -15 -7 -20 -7 -4 -10 -12 -5 -16
4 -4 14 1 22 12 8 11 17 18 19 15 9 -11 46 32 41 47 -5 12 -1 14 14 10 24 -6
37 10 21 26 -6 6 -10 29 -10 52 2 31 3 33 6 12 3 -16 10 -30 18 -33 7 -3 11
-15 8 -27 -2 -12 4 -5 13 16 17 40 12 92 -9 84 -8 -3 -12 8 -13 31 0 24 -8 41
-23 54 -20 16 -51 25 -51 14z"/>
<path d="M3113 5816 c10 -19 12 -19 15 -3 2 10 8 14 15 11 7 -4 9 -3 4 1 -4 5
-16 9 -27 10 -16 1 -17 -1 -7 -19z"/>
<path d="M3165 5830 c3 -5 12 -10 19 -10 8 0 21 -11 30 -25 9 -14 12 -25 6
-25 -6 0 -5 -8 2 -20 16 -25 32 -26 25 -1 -4 15 -1 18 12 13 26 -9 42 -30 40
-49 -1 -10 1 -31 6 -46 6 -21 10 -25 16 -15 7 10 9 9 9 -4 0 -10 4 -18 9 -18
11 0 9 53 -2 61 -4 3 -1 12 7 19 13 10 17 9 25 -11 9 -22 10 -22 11 -4 l1 20
9 -20 c5 -11 9 -14 9 -7 1 7 6 10 11 7 7 -4 9 3 5 22 -3 15 -2 21 1 13 4 -8
11 -23 16 -34 7 -12 7 -16 0 -12 -21 13 -23 -15 -3 -40 l21 -27 0 47 c0 55
-19 87 -67 117 -19 12 -31 24 -28 27 3 3 11 0 17 -6 7 -7 19 -12 28 -12 30 0
87 -119 74 -154 -3 -7 2 -19 11 -26 13 -11 15 -9 15 14 0 15 4 25 10 21 5 -3
16 5 25 19 15 22 15 27 -5 69 -19 40 -52 67 -81 67 -6 0 -18 7 -26 16 -11 10
-24 13 -42 9 -43 -12 -56 -13 -61 -5 -3 4 -14 4 -25 -1 -20 -8 -20 -8 1 -8 24
-1 44 -19 43 -40 0 -11 -3 -10 -9 4 -9 22 -12 12 -12 -40 0 -25 -1 -26 -5 -6
-4 22 -49 70 -65 71 -5 0 -17 9 -28 20 -20 20 -66 29 -55 10z"/>
<path d="M3031 5819 c-25 -5 -48 -14 -53 -21 -11 -18 -10 -38 2 -38 6 0 10 -6
10 -12 0 -7 -12 0 -26 15 -24 28 -62 31 -49 5 3 -7 -2 -3 -11 10 -9 12 -21 22
-27 22 -6 0 2 -13 18 -30 15 -16 32 -27 37 -24 4 3 8 0 8 -6 0 -7 8 -24 19
-38 10 -15 22 -45 25 -67 9 -51 28 -84 24 -40 -2 23 1 30 15 29 9 -1 17 4 17
11 0 23 -12 45 -24 45 -15 0 -69 50 -62 58 3 3 14 -2 23 -10 10 -9 25 -13 33
-11 12 4 12 3 1 -5 -9 -7 -10 -12 -2 -16 6 -4 14 0 17 8 3 9 11 13 17 9 6 -4
8 0 4 10 -4 11 -1 17 9 17 10 0 13 -7 8 -24 -3 -13 -1 -27 5 -30 7 -5 11 2 11
15 0 21 1 22 20 4 11 -10 20 -13 20 -8 0 6 -7 16 -16 24 -9 7 -14 22 -11 36 3
15 -1 23 -9 23 -9 0 -11 -6 -7 -17 6 -17 5 -17 -14 0 -11 9 -23 14 -26 10 -4
-3 -7 -1 -7 5 0 15 17 25 24 14 7 -11 56 -3 56 9 0 5 -7 9 -16 9 -8 0 -12 5
-9 10 7 11 7 11 -54 -1z"/>
<path d="M2755 5793 c-21 -17 -21 -17 17 -54 21 -20 38 -41 38 -45 0 -5 -4 -2
-10 6 -5 8 -12 11 -16 7 -4 -3 -2 -12 4 -19 6 -7 11 -17 12 -23 4 -17 50 -68
57 -61 3 3 1 11 -5 19 -12 14 -5 57 9 57 12 0 11 -14 -1 -26 -7 -7 -6 -11 3
-11 8 0 20 10 27 21 7 12 9 18 4 13 -4 -4 -23 7 -41 25 -18 17 -33 29 -33 25
0 -4 -9 -3 -20 3 -11 6 -20 18 -20 28 1 16 2 16 14 -1 11 -14 15 -15 19 -5 4
9 13 5 31 -14 26 -29 43 -38 29 -15 -4 6 -6 21 -5 32 2 14 0 16 -6 7 -6 -9
-13 -7 -28 9 -10 13 -14 19 -7 16 6 -4 14 -3 18 3 3 5 -2 10 -12 10 -10 0 -27
2 -38 5 -11 3 -29 -3 -40 -12z"/>
<path d="M3180 5802 c0 -12 19 -26 26 -19 2 2 -2 10 -11 17 -9 8 -15 8 -15 2z"/>
<path d="M3675 5790 c4 -6 2 -17 -4 -24 -8 -10 -6 -18 9 -31 19 -17 20 -17 20
-1 0 9 5 14 10 11 6 -3 10 -1 10 6 0 8 5 7 17 -2 9 -8 14 -9 10 -3 -4 7 -23
21 -43 33 -19 12 -32 16 -29 11z"/>
<path d="M5085 5749 c-16 -10 -42 -19 -57 -19 -34 0 -35 -11 -11 -148 21 -119
21 -161 -1 -282 -52 -284 -50 -263 -27 -332 32 -97 36 -147 16 -232 -10 -48
-16 -118 -16 -189 1 -154 -21 -201 -106 -233 -34 -13 -61 -15 -124 -10 -50 4
-78 3 -75 -3 3 -5 0 -12 -6 -15 -7 -4 -3 -4 9 -2 32 6 38 -10 11 -25 -32 -17
-37 -27 -24 -55 13 -27 28 -33 19 -6 -5 14 -3 13 10 -3 8 -11 13 -23 11 -27
-2 -4 0 -9 6 -13 14 -9 13 -26 -2 -23 -7 2 -12 -4 -13 -12 0 -8 -8 -16 -17
-18 -22 -4 -14 24 9 32 12 5 13 9 3 21 -7 8 -16 12 -21 9 -5 -3 -9 1 -9 10 0
8 -11 28 -25 44 -23 28 -24 36 -12 95 1 5 -3 11 -8 13 -6 3 -12 -10 -13 -28
-3 -37 -12 -52 -12 -20 0 12 -4 22 -10 22 -5 0 -7 8 -3 18 5 14 3 15 -8 5 -18
-17 -29 -16 -29 3 0 8 4 13 8 10 8 -5 11 13 12 87 1 26 6 47 11 47 14 0 0 70
-18 95 -15 19 -15 19 -9 -6 3 -14 2 -29 -2 -33 -4 -4 -8 -17 -9 -29 -2 -12 -5
-40 -7 -62 -3 -22 -12 -54 -20 -70 -9 -17 -16 -37 -17 -45 0 -8 -5 -1 -10 15
-5 17 -7 50 -4 75 4 34 2 40 -5 23 -14 -33 -20 -28 -20 14 0 29 3 34 12 25 17
-17 26 -15 31 6 3 10 5 5 6 -12 0 -16 4 -27 7 -23 12 11 10 82 -2 100 -11 17
-13 16 -19 -12 -4 -17 -11 -28 -16 -25 -6 3 -7 13 -4 23 4 9 8 21 9 26 2 6 8
23 15 39 15 36 30 182 20 197 -5 8 -12 8 -25 -1 -16 -10 -16 -11 -1 -6 21 7
21 -14 1 -64 l-14 -35 2 35 c0 19 -4 46 -9 60 -8 19 -7 26 3 28 18 4 18 17 -3
70 -13 36 -14 48 -4 64 11 17 9 23 -8 39 -11 11 -25 37 -31 59 -13 50 -25 51
-38 3 l-10 -38 -7 31 c-6 26 -11 30 -31 26 -18 -3 -24 0 -24 13 0 11 5 15 15
12 8 -4 17 -1 21 5 5 7 3 8 -5 3 -10 -5 -11 5 -7 46 6 45 3 62 -17 99 -14 29
-29 44 -40 44 -11 -1 -16 4 -15 15 2 9 -3 15 -9 14 -7 -2 -13 3 -13 10 0 8
-10 22 -22 33 l-21 19 20 -40 c12 -22 24 -48 27 -59 3 -10 12 -16 19 -13 11 4
11 -2 3 -29 -6 -19 -14 -34 -18 -34 -5 0 -8 -7 -8 -16 0 -8 5 -12 10 -9 6 3
10 -1 10 -11 0 -14 2 -14 16 -3 9 7 20 22 24 34 8 19 9 19 9 -3 1 -13 -6 -36
-15 -53 -8 -16 -12 -39 -9 -49 4 -12 2 -20 -4 -20 -6 0 -11 -5 -11 -11 0 -6 7
-9 15 -5 8 3 15 2 15 -3 0 -5 -10 -12 -22 -16 -21 -6 -20 -7 12 -17 44 -12 62
-28 32 -28 -11 0 -26 -8 -31 -17 -6 -10 -11 -12 -11 -5 0 6 -5 12 -10 12 -16
0 23 -49 38 -50 7 0 10 -5 7 -10 -4 -6 -1 -17 5 -25 10 -12 9 -15 -3 -15 -26
0 8 -55 46 -74 29 -14 30 -16 8 -16 -16 0 -21 -4 -17 -15 3 -10 -1 -15 -12
-15 -14 0 -12 -5 8 -21 16 -13 19 -19 8 -15 -14 4 -16 2 -8 -12 5 -9 17 -32
26 -51 15 -31 15 -33 0 -28 -14 6 -15 4 -4 -16 7 -12 11 -26 10 -31 -2 -4 2
-14 8 -21 13 -16 22 -118 10 -110 -16 10 -20 -27 -5 -54 11 -22 11 -31 2 -41
-9 -10 -9 -11 1 -6 21 12 35 -5 15 -19 -10 -7 -21 -11 -25 -9 -11 7 -10 -10 1
-21 14 -16 23 -65 11 -65 -5 0 -10 8 -10 17 0 9 -3 14 -6 10 -9 -9 16 -148 32
-179 8 -16 20 -28 26 -28 6 0 3 9 -7 20 -10 11 -15 23 -11 27 11 12 29 -14 28
-44 0 -37 22 -71 55 -84 14 -5 23 -12 20 -15 -3 -3 -15 -1 -26 6 -25 13 -328
70 -374 70 -22 0 -28 3 -18 9 18 11 -8 26 -63 37 -34 6 -37 8 -23 19 15 11 12
13 -25 20 -24 4 -49 7 -56 6 -8 -1 -22 5 -33 15 -10 9 -25 14 -34 10 -10 -4
-14 -2 -9 5 4 8 -1 9 -16 4 -15 -5 -20 -4 -16 4 4 6 0 11 -9 11 -9 0 -14 4
-10 9 6 11 -41 8 -52 -2 -12 -13 -45 -8 -37 6 5 8 2 8 -9 -2 -9 -7 -17 -10
-17 -5 0 5 -4 5 -8 -1 -4 -5 -20 -21 -36 -35 -29 -25 -29 -25 -17 -2 12 23 12
23 -13 7 -17 -11 -26 -13 -26 -6 0 7 -4 10 -9 7 -5 -4 -12 0 -15 6 -3 7 -5 4
-5 -7 1 -11 1 -27 0 -35 -1 -13 -2 -13 -11 0 -9 13 -10 13 -10 0 -1 -11 -4
-10 -17 5 -11 14 -14 15 -10 3 8 -22 -3 -30 -21 -15 -13 10 -14 9 -4 -10 16
-29 15 -40 -3 -40 -8 0 -12 4 -10 8 3 4 -2 9 -10 12 -11 5 -12 1 -4 -19 7 -20
6 -25 -3 -21 -7 2 -18 -2 -23 -10 -6 -8 -22 -14 -35 -15 -32 0 -71 -19 -64
-29 3 -5 -28 -6 -68 -4 -40 2 -65 2 -55 -1 25 -8 21 -24 -5 -24 -22 0 -63 19
-43 20 6 0 0 6 -12 13 -89 49 -132 83 -127 100 4 11 0 17 -11 17 -10 0 -14 -5
-10 -12 4 -7 0 -5 -8 4 -8 10 -17 14 -22 10 -4 -4 -4 4 0 18 l7 25 -24 -22
c-27 -25 -47 -16 -49 22 0 13 -4 8 -10 -14 l-10 -33 -35 38 -36 39 17 -33 c9
-19 15 -35 13 -37 -2 -2 -22 10 -46 26 -23 16 -46 29 -49 29 -4 0 -17 10 -30
22 -30 28 -39 18 -12 -15 23 -30 19 -34 -14 -12 -12 8 -36 13 -52 11 -17 -1
-40 1 -52 6 -14 4 -23 4 -23 -2 0 -6 6 -10 13 -11 22 -2 -37 -17 -73 -19 -29
-1 -32 -3 -15 -10 11 -5 43 -10 70 -11 28 -1 -65 -6 -205 -11 -301 -10 -327
-11 -336 -21 -4 -4 -14 -7 -21 -7 -19 0 -8 35 24 78 13 18 22 38 20 45 -3 7
-6 5 -6 -5 -1 -9 -6 -20 -12 -24 -8 -4 -9 1 -4 16 4 12 8 33 10 46 1 13 8 31
15 39 7 9 10 18 7 22 -4 3 -2 15 4 26 9 15 8 18 -3 11 -11 -6 -11 -5 1 9 7 9
9 17 3 17 -5 0 -8 9 -5 20 4 16 2 19 -13 13 -18 -6 -18 -5 -3 13 17 19 15 49
-2 38 -5 -3 -5 4 0 19 5 13 5 30 1 37 -5 8 -6 19 -2 24 6 11 7 15 16 69 2 16
12 37 22 48 16 18 16 19 -1 19 -13 0 -15 3 -6 13 6 8 8 17 4 20 -3 4 0 14 8
24 9 11 10 14 2 9 -7 -4 -13 -2 -13 3 0 6 5 11 11 11 5 0 7 5 4 10 -4 6 0 22
9 35 19 29 20 39 4 29 -9 -5 -9 -2 1 9 7 9 11 17 8 17 -3 0 3 24 14 52 10 29
19 59 19 67 0 8 12 28 27 43 24 25 25 28 7 28 -15 1 -14 4 9 16 18 10 27 23
27 39 0 18 5 25 19 25 23 0 45 25 35 41 -5 9 -2 10 10 6 10 -4 15 -3 11 3 -10
15 17 37 40 32 20 -4 20 -4 0 11 -18 15 -19 16 -2 17 10 0 16 3 14 8 -3 4 15
8 40 9 60 2 74 16 37 37 -27 15 -27 16 -4 10 26 -7 29 -7 70 0 47 8 55 11 73
30 10 11 15 27 11 38 -5 16 -2 18 20 12 20 -5 26 -2 26 9 0 9 9 19 20 22 22 7
26 20 10 30 -6 4 -10 3 -9 -2 4 -22 -2 -25 -16 -7 -14 18 -14 18 -15 -11 l-2
-30 -10 30 c-6 17 -16 37 -23 45 -28 35 -40 100 -18 100 6 0 17 8 22 18 9 15
12 15 21 2 5 -8 10 -24 10 -35 0 -16 2 -17 10 -5 10 16 13 11 24 -45 l6 -30
-30 33 c-18 19 -29 40 -26 48 3 7 1 16 -4 19 -6 4 -10 -2 -10 -12 0 -11 -5
-24 -12 -31 -7 -7 -8 -12 -2 -12 6 0 16 -15 23 -33 8 -21 20 -33 33 -34 20 -2
19 -1 -3 25 l-24 27 31 -28 c33 -29 94 -53 94 -36 0 6 5 7 10 4 6 -3 19 -3 31
0 17 6 18 8 6 18 -19 15 -32 57 -18 57 6 0 11 -6 11 -14 0 -7 6 -19 14 -25 12
-10 19 -8 34 7 11 11 18 23 15 26 -4 3 3 6 15 6 12 0 22 5 22 11 0 18 -41 70
-50 64 -5 -3 -23 1 -40 10 -23 12 -30 12 -30 3 0 -9 -3 -8 -10 2 -8 13 -10 13
-10 -2 0 -20 16 -32 25 -18 4 6 11 8 16 4 5 -3 7 -10 3 -15 -3 -5 -2 -9 3 -8
21 4 33 -3 43 -21 13 -24 -7 -24 -28 0 -10 12 -10 10 -2 -13 16 -45 11 -66 -6
-30 -9 18 -20 30 -25 27 -5 -3 -13 5 -18 18 -9 21 -10 20 -11 -12 l0 -35 -16
32 c-9 18 -19 31 -23 29 -3 -2 -6 7 -6 20 0 26 10 32 18 12 2 -7 8 -10 12 -6
5 5 0 17 -10 28 -9 10 -15 26 -12 34 3 8 -1 17 -10 20 -9 4 -13 9 -9 13 3 4
20 -7 37 -23 19 -18 28 -23 24 -11 -4 9 -3 17 1 17 17 -1 44 -27 44 -43 0 -19
27 -30 33 -12 7 16 -15 36 -63 60 -19 10 -43 24 -52 33 -21 18 -24 40 -3 22
16 -13 86 -50 95 -50 3 0 -3 7 -13 14 -10 8 -17 18 -15 22 5 18 -23 54 -41 54
-24 0 -125 -95 -117 -109 11 -17 -10 -13 -25 5 -12 15 -15 14 -29 -4 -9 -11
-29 -26 -46 -35 -49 -25 -101 -91 -101 -127 0 -27 2 -30 12 -17 9 13 15 7 34
-35 22 -48 24 -80 2 -39 -23 41 -81 50 -81 12 -1 -14 -2 -14 -15 2 -17 23 -11
40 21 57 18 10 23 19 18 34 -9 29 -11 31 -28 16 -9 -6 -18 -28 -22 -46 -3 -19
-12 -41 -19 -48 -10 -10 -9 -17 6 -37 l18 -24 -6 25 c-6 22 -5 23 10 12 18
-16 13 -39 -11 -45 -13 -3 -12 -6 8 -15 14 -6 18 -11 10 -11 -8 0 -20 3 -26 7
-13 8 -29 68 -26 97 2 18 2 19 -8 3 -6 -10 -17 -18 -24 -18 -23 0 -37 -51 -26
-89 5 -19 7 -37 5 -42 -3 -4 5 -16 18 -26 36 -28 44 -48 8 -22 -17 12 -31 25
-32 28 -7 53 -13 57 -38 32 -12 -12 -16 -21 -11 -21 6 0 10 -7 10 -16 0 -9 5
-12 12 -8 7 5 8 3 3 -6 -6 -10 -11 -10 -20 3 -7 10 -18 17 -25 17 -7 0 -10 -3
-7 -7 4 -3 0 -11 -8 -17 -7 -6 -30 -42 -51 -81 -20 -38 -42 -74 -48 -80 -15
-12 -56 -111 -56 -133 0 -8 -12 -40 -27 -71 -39 -83 -41 -91 -48 -151 -6 -51
-11 -71 -30 -125 -4 -11 -9 -27 -11 -35 -4 -22 -33 -101 -47 -129 -6 -13 -10
-34 -9 -46 2 -13 -1 -26 -7 -29 -6 -4 -7 -15 -2 -28 9 -25 -7 -98 -21 -98 -6
0 -8 -6 -5 -13 3 -7 -4 -19 -15 -26 -17 -11 -18 -15 -7 -22 12 -8 12 -11 -1
-20 -11 -8 -12 -12 -2 -16 6 -2 12 -14 12 -26 0 -16 -3 -18 -12 -9 -26 26 -37
13 -34 -42 2 -37 10 -63 24 -81 12 -15 19 -31 16 -36 -3 -5 -1 -9 4 -9 8 0 52
-114 52 -135 0 -5 -10 0 -22 11 -38 33 -73 52 -112 59 -31 6 -36 5 -36 -11 0
-12 8 -20 23 -21 53 -4 80 -13 101 -32 12 -12 27 -21 34 -21 6 0 22 -11 35
-24 21 -21 23 -30 20 -102 -1 -43 -3 -96 -3 -117 -1 -24 -7 -40 -16 -44 -18
-7 0 -33 23 -33 12 0 12 -2 0 -14 -7 -8 -13 -22 -11 -33 5 -37 17 -63 26 -56
6 3 8 0 6 -8 -3 -8 -10 -13 -15 -12 -6 1 -8 -8 -6 -21 3 -13 -3 -39 -13 -57
-14 -29 -15 -32 -1 -21 14 12 16 8 22 -31 4 -25 4 -55 0 -67 -4 -12 -3 -20 1
-17 10 6 10 -60 0 -70 -3 -3 -6 -17 -6 -29 0 -17 4 -22 15 -18 20 8 32 -24 15
-39 -10 -10 -12 -8 -7 6 4 11 1 17 -8 17 -11 0 -14 -9 -9 -37 3 -21 7 -44 9
-50 2 -7 0 -13 -5 -13 -12 0 -13 -47 -1 -54 4 -3 6 7 4 22 -3 24 -2 24 6 6 5
-11 8 -39 7 -62 -1 -22 1 -39 5 -36 5 2 11 -12 15 -32 4 -24 3 -39 -6 -44 -7
-4 -9 -16 -5 -29 3 -12 11 -19 16 -16 5 4 9 -6 9 -22 0 -22 -2 -25 -10 -13
-14 22 -12 4 5 -36 8 -19 14 -37 14 -40 -3 -21 33 -78 78 -123 29 -30 53 -62
53 -72 0 -9 9 -28 20 -42 11 -14 20 -31 20 -39 1 -20 29 -66 30 -48 0 8 10 -1
22 -20 11 -19 28 -46 37 -60 8 -14 14 -31 12 -39 -1 -8 1 -17 6 -20 4 -3 13
-16 20 -28 10 -17 10 -23 0 -27 -8 -3 -7 -9 6 -19 9 -8 17 -26 17 -41 0 -18 4
-25 12 -20 7 4 8 3 4 -4 -4 -7 -4 -17 0 -24 4 -7 9 -24 10 -37 2 -14 8 -27 14
-29 5 -2 10 -13 10 -23 0 -11 4 -17 10 -14 6 3 10 0 10 -7 0 -26 45 -105 58
-101 6 3 13 -1 14 -9 0 -7 2 -17 3 -23 2 -5 3 -16 4 -23 0 -7 5 -10 11 -7 6 3
10 1 10 -5 0 -6 12 -15 26 -20 17 -7 24 -15 20 -26 -3 -9 1 -17 12 -21 25 -10
39 -26 34 -41 -3 -9 3 -11 20 -7 18 4 33 -4 68 -39 56 -54 129 -139 152 -175
19 -29 78 -77 78 -63 0 5 -7 15 -15 22 -8 7 -15 17 -15 23 0 5 8 3 18 -5 9 -9
23 -17 31 -20 17 -5 24 -38 8 -38 -6 0 20 -20 57 -45 76 -50 88 -55 62 -26
-17 19 -17 19 3 14 12 -3 21 -11 21 -18 0 -7 7 -16 16 -19 22 -9 24 -8 18 9
-8 20 -3 19 50 -7 25 -12 43 -26 40 -30 -4 -5 3 -12 15 -15 11 -3 18 -10 14
-16 -4 -6 2 -8 15 -5 13 4 22 1 22 -5 0 -6 3 -8 6 -4 4 3 22 0 41 -8 41 -18
46 -18 38 -6 -3 5 -1 12 4 16 6 3 8 12 5 20 -3 7 5 20 19 29 45 30 80 -7 50
-53 -15 -24 -15 -25 0 -12 12 9 17 10 17 2 0 -7 6 -9 13 -5 6 4 -2 -8 -19 -26
-18 -19 -37 -29 -43 -25 -9 5 -9 10 0 21 9 11 8 14 -2 15 -50 5 -69 4 -69 -4
0 -5 -8 -6 -17 -2 -14 5 -15 3 -6 -6 6 -6 9 -18 6 -25 -3 -8 2 -17 11 -20 20
-8 21 -34 1 -34 -8 0 -19 -9 -25 -20 -7 -12 -25 -22 -50 -26 -22 -4 -40 -10
-40 -15 0 -5 -10 -9 -22 -9 -16 0 -19 -3 -11 -11 14 -14 5 -49 -13 -49 -8 0
-14 -4 -14 -10 0 -5 -7 -10 -15 -10 -32 0 4 -45 61 -75 83 -44 96 -47 219 -50
111 -4 177 6 205 30 39 32 91 20 95 -24 1 -9 7 -26 13 -38 8 -14 9 -24 2 -28
-6 -4 -8 -10 -5 -15 3 -5 -10 -38 -30 -73 -53 -99 -86 -195 -84 -243 2 -24 -3
-50 -11 -58 -15 -19 -9 -92 11 -141 7 -16 11 -36 10 -42 -1 -9 8 -11 26 -8 15
2 78 12 138 20 258 38 745 190 745 233 0 13 2 14 9 4 12 -20 305 131 485 252
258 173 525 403 518 447 -2 11 2 19 7 19 6 0 11 -5 11 -11 0 -8 5 -7 15 1 14
11 10 16 -26 37 -23 13 -53 26 -68 29 -14 4 -33 12 -41 19 -8 7 -26 16 -40 20
-14 4 -33 16 -43 26 -10 11 -24 19 -32 19 -8 0 -15 5 -15 11 0 7 -12 9 -35 5
-34 -7 -75 9 -75 28 0 19 -52 57 -71 51 -14 -5 -19 -2 -19 11 0 13 -6 15 -28
11 -21 -4 -33 0 -45 14 -9 10 -26 19 -37 19 -11 0 -17 5 -14 13 5 13 -50 41
-74 38 -8 -1 -32 9 -53 24 -37 24 -59 26 -59 4 0 -5 8 -9 17 -9 12 0 14 -3 7
-10 -12 -12 -47 -2 -39 10 3 5 2 15 -1 24 -5 12 -11 13 -24 6 -26 -14 -40 -12
-40 4 0 8 -6 17 -12 19 -9 4 -9 6 -1 6 16 1 4 41 -12 41 -7 0 -15 -6 -18 -12
-6 -18 -23 0 -31 32 -3 14 -3 19 0 13 7 -16 41 -17 46 -2 4 12 105 -29 181
-73 26 -15 51 -28 55 -28 3 0 63 -27 132 -61 69 -33 145 -69 170 -81 25 -11
62 -29 83 -39 22 -10 43 -16 48 -13 5 3 9 0 9 -5 0 -16 28 -13 37 3 7 12 32
21 76 25 4 1 7 17 5 36 -1 19 1 37 5 41 4 4 7 3 7 -2 0 -6 22 -9 50 -8 51 1
58 -1 129 -49 33 -22 49 -27 73 -22 16 4 27 9 24 12 -5 6 51 81 87 117 36 35
165 240 230 366 230 437 337 830 369 1345 11 184 7 284 -12 315 -8 13 -14 13
-42 1 -118 -47 -208 -18 -237 78 -18 62 -13 160 10 211 35 77 59 163 59 216 0
37 8 66 31 110 29 55 30 64 25 139 -3 44 -7 92 -10 108 -4 15 -8 39 -11 53
-12 70 -117 312 -203 469 -104 189 -232 375 -258 375 -18 0 -34 -89 -33 -180
1 -63 -4 -85 -29 -141 -18 -40 -45 -78 -69 -100 -22 -19 -48 -49 -57 -67 -16
-31 -16 -37 -2 -80 31 -92 13 -194 -41 -238 -18 -14 -25 -29 -24 -50 1 -16 3
-87 5 -159 2 -71 7 -138 11 -148 4 -11 5 -62 1 -115 -7 -103 -32 -162 -68
-162 -31 0 -20 -19 56 -93 68 -66 75 -76 81 -122 8 -64 -4 -94 -52 -134 -100
-82 -233 -58 -275 49 -13 34 0 145 24 202 22 52 20 112 -7 188 -11 31 -18 97
-22 216 -5 152 -4 178 13 223 10 29 25 58 34 66 126 117 124 115 122 202 -2
47 -7 80 -15 85 -7 4 -8 8 -4 8 13 0 -13 40 -26 40 -22 0 -65 53 -81 97 -8 23
-13 60 -11 82 27 268 22 559 -10 671 -9 30 -16 87 -16 127 l1 72 -63 51 c-34
27 -69 50 -77 49 -8 0 -28 -9 -45 -20z m-2432 -160 c10 -11 17 -25 15 -30 -2
-6 -14 4 -26 20 -25 35 -16 42 11 10z m203 -66 c-3 -4 -13 2 -21 13 -22 29
-18 41 6 15 12 -12 18 -25 15 -28z m-312 22 c3 -8 1 -15 -4 -15 -6 0 -10 7
-10 15 0 8 2 15 4 15 2 0 6 -7 10 -15z m157 -41 c2 2 5 -12 6 -32 l2 -37 -12
32 c-7 17 -15 35 -19 39 -5 4 -8 14 -8 23 1 11 5 9 13 -7 7 -12 15 -21 18 -18z
m-154 -36 c-3 12 -2 22 3 22 4 0 10 -13 12 -30 3 -16 1 -30 -4 -30 -5 0 -6 -6
-3 -12 4 -7 -3 -2 -16 12 l-22 25 8 -25 c3 -14 15 -37 25 -51 11 -15 16 -29
13 -32 -7 -8 -32 16 -26 26 2 4 -3 7 -11 7 -9 0 -22 13 -30 29 -9 16 -22 31
-31 34 -8 4 -15 14 -15 24 0 15 2 16 10 3 7 -11 10 -11 10 -2 0 7 5 10 10 7 6
-3 10 -14 10 -24 0 -10 7 -24 15 -31 14 -11 14 -10 5 14 -5 15 -8 31 -5 36 3
5 1 11 -5 15 -5 3 -10 13 -10 22 0 9 13 0 31 -23 24 -30 31 -34 26 -16z m198
11 c11 -17 -1 -21 -15 -4 -8 9 -8 15 -2 15 6 0 14 -5 17 -11z m-255 -143 c0
-5 -7 -3 -15 4 -8 7 -12 17 -9 22 7 10 24 -9 24 -26z m-189 -23 c13 -16 12
-17 -3 -4 -17 13 -22 21 -14 21 2 0 10 -8 17 -17z m97 -48 c-3 -3 -9 2 -12 12
-6 14 -5 15 5 6 7 -7 10 -15 7 -18z m2062 -314 c0 -5 -7 -11 -14 -14 -10 -4
-13 -1 -9 9 6 15 23 19 23 5z m-60 -21 c0 -5 -5 -10 -11 -10 -5 0 -7 5 -4 10
3 6 8 10 11 10 2 0 4 -4 4 -10z m50 -32 c0 -19 -2 -20 -10 -8 -13 19 -13 30 0
30 6 0 10 -10 10 -22z m-24 -94 c-4 -20 -10 -34 -13 -30 -3 3 -2 21 1 42 4 20
10 34 13 30 3 -3 2 -21 -1 -42z m41 -126 c-3 -7 -5 -2 -5 12 0 14 2 19 5 13 2
-7 2 -19 0 -25z m-33 -464 c3 -9 6 -23 6 -32 0 -22 -19 -2 -25 26 -4 25 10 30
19 6z m52 -51 c-11 -11 -17 4 -9 23 7 18 8 18 11 1 2 -10 1 -21 -2 -24z m25
-16 c-13 -13 -15 11 -4 40 7 16 8 15 11 -6 2 -13 -1 -28 -7 -34z m-1716 -15
c-3 -3 -11 0 -18 7 -9 10 -8 11 6 5 10 -3 15 -9 12 -12z m1779 -54 c-8 -30
-10 -31 -24 -23 -8 5 -7 11 2 23 10 12 10 14 1 8 -7 -4 -13 -2 -13 3 0 6 9 11
21 11 16 0 19 -4 13 -22z m-1983 2 c36 1 62 -4 70 -13 8 -7 21 -12 29 -10 13
4 13 3 0 -6 -13 -9 -11 -14 14 -36 26 -22 28 -27 15 -39 -8 -8 -57 -24 -111
-36 -96 -21 -222 -74 -245 -102 -7 -8 -14 -25 -16 -38 -2 -12 -12 -29 -23 -37
-17 -13 -13 -14 36 -8 30 3 58 11 62 18 6 9 12 9 28 -1 11 -7 26 -10 32 -6 7
4 8 3 4 -4 -5 -8 1 -12 15 -12 21 0 21 0 -5 34 l-26 35 22 16 c22 15 23 14 32
-16 15 -49 40 -59 121 -49 38 5 72 7 76 4 4 -2 7 2 6 9 -1 33 4 47 17 47 24 0
23 -21 -3 -51 -19 -21 -28 -26 -38 -17 -8 6 -13 7 -13 0 0 -5 -15 -13 -32 -17
l-33 -7 29 -10 c22 -8 30 -7 37 3 4 7 11 10 15 6 4 -4 13 -2 20 3 6 6 16 10
20 9 5 -2 27 3 49 9 22 7 55 12 74 12 30 0 33 2 27 25 -4 14 -3 25 1 24 5 -1
10 0 13 1 3 1 14 3 24 5 54 10 65 16 60 30 -4 8 -2 15 4 15 5 0 7 11 4 25 -2
15 0 25 7 25 6 0 11 7 11 15 0 15 5 16 58 19 l27 1 -1 -100 c0 -88 -4 -109
-33 -182 -34 -88 -103 -177 -150 -195 -33 -13 -313 -11 -400 2 -130 20 -196
46 -235 92 -49 57 -60 101 -60 248 0 69 -3 114 -7 100 -6 -21 -7 -20 -8 13 -2
76 38 129 112 148 17 4 73 6 122 3 50 -3 115 -5 146 -4z m1418 -60 c31 -5 101
-16 157 -23 121 -18 167 -37 187 -80 47 -103 12 -318 -71 -426 -14 -19 -19
-31 -11 -26 8 4 11 4 6 0 -4 -5 -13 -10 -20 -11 -7 -1 -33 -11 -58 -23 -88
-40 -316 -47 -499 -15 -70 13 -127 44 -158 88 -38 53 -83 181 -80 233 1 37 1
37 5 5 2 -18 9 -30 14 -27 5 4 21 -3 35 -14 15 -12 35 -21 46 -21 11 0 29 -5
40 -11 15 -8 22 -8 28 1 5 9 20 10 46 5 l39 -7 -29 31 c-27 28 -27 36 -2 32 5
-1 4 4 -3 13 -22 26 -1 27 186 9 29 -3 68 0 87 7 39 13 86 4 86 -16 0 -23 -49
-47 -113 -55 -61 -8 -60 -8 20 -5 48 2 88 8 97 15 11 10 23 10 43 3 32 -11 96
-4 87 9 -3 5 3 9 13 10 12 0 9 4 -9 10 -17 7 -35 26 -48 54 -36 74 -98 109
-242 135 -125 23 -106 54 46 75 22 3 42 8 45 10 4 5 -97 9 -129 6 -13 -2 -13
-1 0 8 19 13 87 14 159 1z m501 -11 c0 -6 -4 -7 -10 -4 -5 3 -10 11 -10 16 0
6 5 7 10 4 6 -3 10 -11 10 -16z m-991 -3 c-10 -9 -89 -46 -89 -41 0 6 72 44
84 45 5 0 7 -2 5 -4z m1256 -26 c3 -5 1 -10 -4 -10 -6 0 -11 5 -11 10 0 6 2
10 4 10 3 0 8 -4 11 -10z m-63 -34 c4 -19 1 -22 -14 -18 -10 2 -18 0 -18 -5 0
-14 77 -15 86 -2 4 8 9 7 15 -2 7 -11 9 -10 9 4 0 10 5 15 11 12 5 -4 8 -12 6
-18 -2 -7 5 -25 17 -42 25 -36 27 -134 6 -229 -13 -55 -13 -60 6 -75 50 -41
72 -112 50 -165 -14 -35 -99 -103 -142 -115 -21 -5 -32 -22 -60 -91 -18 -47
-33 -92 -34 -101 -1 -64 -87 -269 -112 -269 -10 0 -5 142 6 170 9 22 16 75 23
155 4 57 10 74 30 93 13 12 29 22 35 22 24 0 48 34 48 69 0 48 -32 151 -47
151 -24 0 -63 24 -69 42 -7 23 30 68 56 68 9 0 23 11 30 25 7 14 18 25 24 25
6 0 5 4 -2 9 -11 6 -10 11 3 25 10 9 20 14 24 11 3 -4 8 -57 11 -118 3 -65 9
-112 15 -112 6 0 12 11 13 24 2 13 15 41 28 61 28 42 64 150 64 191 0 34 -23
53 -53 45 -14 -3 -31 1 -43 10 -10 8 -13 12 -5 8 9 -4 12 -2 9 7 -8 24 -33 16
-30 -8 3 -22 -6 -28 -35 -24 -7 1 -23 -7 -35 -19 -29 -27 -52 -25 -68 4 -18
35 3 83 44 101 17 7 25 14 18 14 -7 1 -30 13 -50 27 l-37 26 35 -6 c19 -3 47
-9 63 -12 18 -4 27 -2 27 6 0 10 26 45 36 49 1 1 4 -10 6 -23z m-2588 -5 c10
-11 27 -69 41 -142 13 -68 31 -145 40 -171 34 -96 111 -143 295 -178 81 -15
88 -18 50 -20 -41 -1 -43 -2 -20 -12 35 -14 244 -19 310 -7 59 11 142 49 177
81 27 25 82 130 118 228 35 94 86 150 136 150 79 0 129 -68 154 -211 8 -43 19
-95 25 -116 15 -50 74 -131 103 -142 49 -19 99 -97 95 -148 l-3 -38 -90 -2
c-62 -1 -111 -8 -158 -23 -57 -19 -75 -20 -115 -12 -54 12 -82 12 -82 1 0 -10
-48 -2 -112 18 -40 12 -56 13 -105 2 -32 -8 -66 -12 -76 -11 -24 3 -13 -13 31
-46 21 -15 38 -33 40 -41 1 -7 -2 -10 -7 -7 -5 4 -13 1 -17 -6 -5 -8 -9 -6
-14 6 -6 17 -8 17 -22 3 -14 -14 -16 -14 -28 8 -22 40 -82 38 -117 -5 -7 -8
-13 -11 -13 -5 0 5 -7 -1 -16 -13 -9 -13 -22 -21 -30 -18 -7 3 -22 -7 -33 -22
-11 -15 -21 -21 -21 -14 0 7 -7 20 -15 28 -12 13 -14 11 -10 -16 2 -16 -1 -32
-6 -35 -5 -4 -9 -1 -9 5 0 6 -4 8 -10 5 -5 -3 -10 -2 -10 4 0 5 5 13 10 16 6
3 10 11 10 18 0 8 -3 8 -12 -1 -14 -14 -38 2 -38 25 0 21 48 70 97 99 47 28
93 78 93 100 0 18 -11 18 -36 -1 -22 -17 -38 -20 -29 -5 4 6 -15 -2 -42 -16
-26 -15 -94 -74 -149 -132 -90 -92 -105 -113 -132 -181 -21 -55 -27 -82 -21
-98 6 -16 3 -32 -8 -52 -15 -25 -15 -34 -4 -72 7 -24 15 -50 17 -56 2 -7 10
-13 19 -13 8 0 15 -8 16 -17 0 -12 2 -14 6 -5 3 9 12 3 24 -18 22 -36 23 -114
2 -136 -8 -8 -10 -14 -5 -14 5 0 17 10 25 23 13 18 16 19 16 5 1 -9 -4 -20
-10 -23 -5 -4 -15 -19 -21 -33 -6 -15 -12 -22 -15 -15 -2 7 -11 9 -20 6 -13
-5 -15 -1 -11 20 3 15 1 24 -3 21 -16 -10 -9 54 7 71 13 12 14 19 4 30 -7 8
-16 13 -20 10 -12 -8 -31 21 -24 38 3 9 12 13 20 10 19 -7 18 1 -5 21 -17 15
-19 15 -32 -1 -12 -14 -12 -16 0 -8 10 5 12 4 7 -3 -13 -22 -28 -12 -23 14 3
18 1 24 -9 20 -8 -3 -11 0 -7 10 3 7 0 14 -6 14 -6 0 -11 14 -11 30 0 17 -5
30 -11 30 -7 0 -9 -10 -4 -27 3 -16 7 -42 7 -60 1 -19 5 -30 11 -26 6 3 7 1 3
-6 -13 -21 -33 6 -40 54 -4 25 -12 48 -18 51 -8 5 -9 -6 -5 -34 5 -42 0 -51
-20 -31 -7 7 -10 3 -8 -15 2 -14 -1 -26 -7 -26 -6 0 -8 7 -5 15 4 8 2 17 -3
20 -6 4 -10 -1 -10 -11 0 -14 -3 -14 -15 -4 -11 9 -14 22 -10 42 5 19 2 30 -7
33 -9 4 -13 17 -10 40 3 28 1 34 -11 29 -11 -4 -14 -15 -11 -40 2 -19 0 -34
-5 -34 -5 0 -10 8 -11 18 0 9 -1 36 -2 60 -1 27 -5 39 -11 33 -5 -5 -16 -7
-25 -4 -10 4 -13 2 -8 -5 4 -7 2 -12 -5 -12 -6 0 -9 8 -6 20 3 11 2 20 -3 20
-10 0 -35 90 -31 114 1 10 -2 15 -7 12 -17 -10 -20 17 -5 47 16 33 8 35 -25 5
-24 -22 -24 -22 -14 -2 6 12 8 25 4 29 -4 5 -2 5 5 1 14 -8 18 -1 28 41 6 31
5 32 -22 28 -15 -2 -22 -2 -15 1 6 3 12 11 12 19 0 7 7 18 15 25 8 7 15 17 15
23 0 5 -8 3 -17 -5 -33 -27 -48 -32 -27 -7 23 26 40 64 24 54 -5 -3 -14 3 -20
14 -7 14 -7 22 0 26 6 4 10 34 9 68 -2 60 -3 61 -15 32 -9 -20 -13 -24 -14
-12 0 10 5 28 11 40 12 21 11 22 -8 4 -20 -17 -20 -17 -16 6 3 15 11 24 21 23
10 0 16 5 14 14 -6 27 -6 45 2 73 5 20 3 27 -4 22 -7 -4 -5 6 4 23 17 33 25
130 13 150 -5 6 -5 17 -1 24 4 7 8 31 9 55 2 35 0 41 -11 32 -8 -6 -5 5 6 28
15 32 27 42 61 52 26 8 43 20 46 32 7 24 25 24 47 0z m-284 -37 c0 -8 -4 -12
-10 -9 -5 3 -10 13 -10 21 0 8 5 12 10 9 6 -3 10 -13 10 -21z m740 6 c-14 -4
-32 -8 -40 -9 -13 -1 -13 0 0 9 8 5 26 9 40 9 l25 -1 -25 -8z m-76 -25 c-10
-8 -23 -15 -28 -15 -6 0 -1 7 10 15 10 8 23 15 28 15 6 0 1 -7 -10 -15z m-604
-7 c0 -16 -23 -19 -38 -4 -15 15 -14 16 11 14 15 -1 27 -6 27 -10z m720 -18
c0 -5 -7 -10 -15 -10 -8 0 -15 5 -15 10 0 6 7 10 15 10 8 0 15 -4 15 -10z
m1215 -11 c10 -15 -1 -23 -20 -15 -9 3 -13 10 -10 16 8 13 22 13 30 -1z
m-1965 -31 c0 -5 -4 -8 -10 -8 -5 0 -10 10 -10 23 0 18 2 19 10 7 5 -8 10 -18
10 -22z m35 12 c-3 -5 -10 -10 -16 -10 -5 0 -9 5 -9 10 0 6 7 10 16 10 8 0 12
-4 9 -10z m1845 -14 c0 -2 3 -11 6 -20 4 -10 1 -16 -9 -16 -17 0 -40 24 -30
33 7 8 33 10 33 3z m724 -100 c17 -31 22 -47 13 -43 -20 8 -15 -119 7 -161 21
-40 20 -48 -1 -31 -11 9 -9 3 5 -15 12 -16 22 -38 21 -50 0 -18 -3 -16 -14 9
-8 17 -14 23 -15 15 0 -9 7 -25 15 -36 18 -27 45 -103 45 -129 0 -11 -5 -27
-10 -35 -7 -11 -8 -3 -5 25 2 22 1 34 -2 27 -2 -6 -9 -9 -15 -6 -12 8 -3 -54
14 -90 9 -21 9 -29 -2 -39 -7 -7 -10 -7 -7 -1 4 6 -2 19 -13 29 -11 10 -20 13
-20 8 0 -6 6 -13 14 -16 15 -6 10 -57 -6 -68 -5 -3 -11 -32 -13 -63 -2 -32 -8
-63 -15 -70 -8 -8 -10 -7 -5 7 4 10 2 17 -4 17 -6 0 -11 -11 -11 -24 0 -35
-10 -56 -27 -56 -9 0 -13 -6 -10 -14 4 -10 0 -13 -14 -11 -15 3 -19 0 -16 -9
5 -13 -21 -46 -36 -46 -4 0 -7 10 -7 23 0 12 -4 18 -8 12 -4 -5 -15 -11 -24
-13 -14 -2 -18 4 -18 28 0 17 -9 39 -20 50 -11 11 -20 25 -20 30 0 6 -4 10
-10 10 -14 0 -12 -12 5 -36 8 -12 11 -24 8 -28 -3 -3 1 -6 10 -6 18 0 23 -15
8 -25 -5 -3 -13 0 -17 7 -5 8 -10 6 -15 -8 -7 -17 -8 -17 -8 4 -1 12 -6 22
-12 22 -8 0 -7 5 2 16 11 14 10 18 -6 30 -14 10 -21 11 -26 3 -11 -19 -40 -2
-32 18 5 15 3 15 -10 -2 -11 -14 -12 -22 -4 -27 8 -5 5 -13 -7 -27 -11 -12
-22 -21 -25 -21 -11 1 -43 79 -36 90 3 5 2 10 -2 10 -5 0 -28 18 -51 40 -57
53 -93 80 -105 80 -5 0 -4 -7 3 -15 10 -12 10 -15 -3 -15 -8 0 -20 7 -27 15
-9 11 -16 12 -25 5 -8 -7 -17 -4 -30 10 -10 11 -21 17 -25 15 -11 -7 -19 31
-9 46 6 10 13 10 34 1 21 -10 26 -10 22 0 -2 7 -10 12 -16 10 -7 -1 -10 2 -6
8 3 5 1 19 -5 30 -9 17 -7 22 17 31 50 20 142 39 158 33 8 -3 15 -2 15 4 0 13
-48 22 -52 10 -2 -5 -33 1 -68 15 -36 14 -85 29 -110 34 -32 6 5 8 130 8 338
1 407 46 479 310 30 109 30 110 40 99 5 -5 21 -31 35 -58z m23 37 c-3 -2 -1
-19 4 -36 l9 -32 -20 25 c-11 14 -20 30 -20 36 0 15 11 24 22 18 5 -3 7 -8 5
-11z m-847 -386 c0 -1 4 -18 10 -37 8 -29 8 -32 -4 -20 -19 20 -30 60 -17 60
6 0 11 -1 11 -3z m-575 -247 c3 -5 1 -10 -4 -10 -6 0 -11 5 -11 10 0 6 2 10 4
10 3 0 8 -4 11 -10z m95 -24 c0 -6 9 -17 20 -24 12 -7 18 -17 15 -22 -11 -18
-75 9 -75 32 0 6 8 7 18 4 14 -5 14 -4 -2 9 -23 17 -36 19 -36 5 0 -5 -4 -10
-10 -10 -5 0 -10 7 -10 16 0 8 5 12 10 9 6 -3 10 -2 10 4 0 7 10 6 30 0 17 -6
30 -16 30 -23z m-340 17 c-1 -5 -12 -21 -26 -38 l-25 -30 5 29 c5 27 20 45 39
46 4 0 7 -3 7 -7z m192 1 c3 -3 4 -14 1 -24 -4 -17 -7 -17 -19 -5 -8 7 -14 18
-14 24 0 11 23 15 32 5z m-259 -53 c-3 -11 -12 -22 -20 -25 -7 -3 -12 -2 -10
2 2 4 7 15 10 25 9 23 26 22 20 -2z m-56 -23 c-3 -8 -6 -5 -6 6 -1 11 2 17 5
13 3 -3 4 -12 1 -19z m-733 -93 c-4 -8 -11 -15 -16 -15 -6 0 -5 6 2 15 7 8 14
15 16 15 2 0 1 -7 -2 -15z m1606 -20 c0 -5 -5 -3 -10 5 -5 8 -10 20 -10 25 0
6 5 3 10 -5 5 -8 10 -19 10 -25z m-863 -57 c-3 -7 -5 -2 -5 12 0 14 2 19 5 13
2 -7 2 -19 0 -25z m1427 16 c4 -10 1 -14 -6 -12 -15 5 -23 28 -10 28 5 0 13
-7 16 -16z m71 -4 c-3 -5 -1 -19 5 -30 12 -23 8 -25 -19 -8 -15 9 -17 16 -9
34 6 13 15 21 20 18 4 -3 6 -9 3 -14z m374 -101 c8 -13 8 -19 0 -19 -23 0 -49
22 -49 40 0 17 3 18 19 9 10 -7 23 -20 30 -30z m-2519 22 c0 -5 -7 -11 -15
-15 -15 -5 -20 5 -8 17 9 10 23 9 23 -2z m1282 -94 c4 -7 8 -19 8 -28 0 -28
12 -29 33 -3 15 20 22 23 28 12 7 -10 9 -10 9 2 0 13 1 13 10 0 15 -23 12 -56
-7 -79 -16 -20 -34 -23 -177 -33 -146 -11 -159 -11 -168 5 -5 10 -13 15 -17
13 -5 -3 -21 -2 -38 3 -20 6 -35 4 -48 -5 -25 -19 -61 -18 -69 1 -5 13 -10 14
-27 5 -16 -9 -24 -8 -38 4 -10 9 -21 13 -25 9 -9 -10 70 -44 116 -51 21 -2 38
-8 38 -12 0 -4 6 -7 13 -7 6 0 29 -3 50 -7 27 -5 37 -4 32 3 -3 6 -18 11 -32
11 -15 0 -24 3 -21 6 9 8 98 -7 98 -17 0 -5 -7 -9 -17 -9 -9 0 -14 -2 -11 -5
10 -10 137 -15 143 -5 4 6 10 8 14 6 3 -2 36 1 71 9 36 7 81 11 100 10 19 -2
49 1 67 6 49 15 183 16 183 2 0 -7 6 -10 14 -7 8 3 25 -6 37 -20 20 -22 43
-31 82 -35 4 -1 7 -6 7 -12 0 -5 -5 -7 -11 -3 -7 4 -27 8 -45 10 -27 2 -32 0
-27 -14 4 -9 8 -11 10 -5 5 15 40 5 47 -14 3 -7 2 -12 -3 -9 -11 7 -8 -45 3
-63 7 -10 5 -13 -5 -9 -11 4 -14 -6 -14 -48 1 -39 -2 -50 -11 -43 -8 7 -13 3
-18 -13 -4 -16 0 -28 15 -40 12 -10 24 -16 28 -13 4 2 8 -2 8 -10 0 -16 -26
-6 -47 20 -18 21 -31 1 -23 -36 3 -15 0 -30 -6 -33 -6 -4 -11 -3 -11 3 0 6 -9
15 -21 22 -18 9 -20 8 -15 -8 3 -10 1 -25 -4 -33 -8 -12 -13 -11 -33 8 -23 22
-43 30 -33 13 8 -13 -31 -20 -43 -8 -6 6 -13 8 -16 5 -4 -3 7 -12 23 -19 21
-9 28 -18 24 -31 -2 -10 -12 -18 -21 -17 -34 3 -45 -4 -16 -11 l30 -8 -34 -1
c-31 -1 -33 -3 -28 -29 3 -15 2 -34 -4 -42 -6 -11 -9 -6 -10 20 -1 19 -1 46 0
59 1 12 -6 29 -16 37 -16 13 -17 14 0 8 20 -7 24 11 3 19 -15 6 -28 57 -15 57
5 0 9 -6 9 -14 0 -24 28 -40 45 -26 8 6 23 9 33 6 13 -5 19 -1 19 11 0 22 -15
33 -42 32 -16 -1 -15 -2 5 -9 l25 -7 -28 -8 c-22 -6 -33 -3 -53 16 -13 12 -24
27 -24 32 0 11 -39 47 -52 47 -4 0 -8 -6 -9 -12 0 -8 -3 -7 -6 2 -13 32 -31
42 -55 29 -15 -8 -23 -9 -26 -1 -4 13 -32 4 -32 -10 0 -5 4 -7 8 -4 5 3 9 -1
9 -9 0 -17 -13 -20 -22 -5 -9 14 -25 3 -36 -27 -5 -13 -13 -21 -19 -18 -6 3
-14 -5 -19 -18 -6 -14 -15 -28 -21 -32 -6 -4 -2 11 9 34 21 40 20 91 -1 91 -5
0 -7 -4 -3 -9 3 -5 0 -13 -6 -16 -5 -4 -8 -13 -5 -21 3 -7 0 -16 -6 -20 -7 -4
-8 -3 -4 4 4 7 2 12 -4 12 -6 0 -15 -12 -20 -26 -6 -14 -15 -22 -20 -19 -6 4
-3 17 10 35 24 33 26 48 5 30 -8 -7 -15 -19 -15 -26 0 -8 -6 -13 -12 -12 -9 2
-12 -7 -10 -24 2 -20 -2 -28 -13 -28 -17 0 -20 27 -5 66 14 35 6 43 -12 11
-52 -94 -108 -159 -108 -126 0 6 -4 7 -10 4 -14 -9 -12 18 3 34 10 12 8 13 -8
7 -14 -5 -17 -4 -9 4 12 12 44 3 44 -12 0 -5 -4 -6 -10 -3 -5 3 -10 -1 -10
-10 0 -27 22 -12 43 29 21 40 16 62 -8 30 -13 -18 -14 -18 -8 6 5 25 5 25 -11
5 -10 -11 -14 -13 -10 -5 4 8 -5 4 -20 -9 -14 -14 -25 -30 -23 -35 2 -6 0 -21
-4 -33 -5 -14 -5 -23 1 -23 6 0 10 -5 10 -11 0 -6 -7 -9 -15 -5 -8 3 -14 0
-12 -6 1 -6 -12 -15 -29 -19 -17 -5 -37 -16 -44 -24 -7 -8 -16 -15 -21 -15 -4
0 3 11 17 25 13 13 26 24 28 22 2 -1 13 6 25 17 22 20 19 36 -7 35 -14 0 -13
-2 3 -9 18 -7 18 -8 3 -14 -41 -14 -49 -15 -44 -8 3 5 -4 16 -15 26 -18 15
-23 15 -49 2 -29 -14 -29 -14 -25 16 2 17 1 28 -1 25 -3 -3 -6 -9 -6 -14 0
-14 -20 -33 -30 -27 -5 3 -5 11 2 19 9 11 7 12 -10 8 -11 -3 -23 -9 -26 -14
-3 -5 -11 -9 -17 -9 -7 0 -1 9 12 19 32 24 38 54 9 45 -15 -4 -18 -3 -13 6 5
9 1 10 -16 5 -24 -8 -24 -7 -6 13 20 22 14 47 -9 38 -8 -3 -14 1 -14 9 0 8 -8
15 -17 15 -10 0 -14 4 -8 8 6 4 16 17 22 29 11 19 10 21 -2 17 -9 -4 -15 0
-15 9 0 11 -8 15 -27 12 -19 -2 -28 -8 -27 -19 1 -9 -2 -16 -7 -16 -5 0 -9 5
-9 10 0 6 -7 10 -16 10 -9 0 -12 5 -8 12 4 7 3 8 -5 4 -6 -4 -9 -12 -6 -17 4
-5 1 -9 -4 -9 -6 0 -11 5 -11 11 0 6 -7 9 -14 6 -12 -5 -13 -1 -7 16 5 12 11
21 15 19 4 -1 18 10 31 25 13 16 25 22 25 16 0 -7 7 -13 15 -13 9 0 12 -6 8
-17 -4 -11 -3 -14 5 -9 7 4 12 2 12 -3 0 -6 8 -11 17 -11 15 0 14 2 -3 14 -17
13 -19 25 -16 112 2 54 8 106 13 115 4 9 6 19 3 21 -2 3 0 17 5 30 9 23 13 25
48 18 21 -4 61 -20 88 -37 60 -35 89 -47 80 -32 -12 18 4 59 20 53 9 -4 15 0
15 10 0 20 14 21 33 2 12 -13 16 -12 27 10 17 31 22 30 63 -6 31 -27 35 -28
39 -12 7 26 39 23 61 -5 21 -26 37 -30 37 -8 0 21 42 58 51 44 4 -7 14 -9 22
-6 16 6 40 -16 51 -47 6 -17 10 -14 28 20 11 21 26 42 32 47 14 9 59 -1 68
-16z m1196 -24 c-1 -5 5 -22 15 -39 13 -25 21 -30 40 -27 20 4 26 0 31 -21 3
-14 10 -26 15 -26 5 0 7 -10 3 -22 -4 -16 -1 -20 9 -16 8 3 20 -1 27 -8 11
-12 9 -14 -6 -14 -15 0 -18 -5 -14 -25 2 -15 0 -25 -7 -25 -6 0 -16 -10 -22
-23 -6 -13 -16 -24 -23 -24 -7 0 -32 -13 -57 -30 -38 -26 -65 -41 -151 -84
-11 -6 -18 -5 -18 1 0 5 -8 10 -17 10 -14 0 -15 -2 -5 -9 10 -6 10 -10 -3 -21
-13 -10 -15 -9 -15 8 0 12 5 24 11 28 8 5 8 8 0 14 -8 5 -6 19 8 51 12 24 21
37 21 29 1 -8 8 -2 16 13 8 15 13 36 10 45 -3 9 -1 24 5 32 8 11 9 9 3 -10 -8
-30 -3 -26 30 23 14 20 21 37 16 37 -6 0 -10 7 -10 15 0 8 4 15 10 15 5 0 7 7
4 15 -6 15 50 95 67 95 5 0 8 -3 7 -7z m-2178 -144 c0 -18 -18 -9 -23 12 -4
16 -3 18 9 8 8 -6 14 -15 14 -20z m115 -28 c3 -5 1 -12 -5 -16 -5 -3 -10 1
-10 9 0 18 6 21 15 7z m-133 -83 c-7 -7 -12 -8 -12 -2 0 6 3 14 7 17 3 4 9 5
12 2 2 -3 -1 -11 -7 -17z m126 1 c3 -11 2 -11 -7 1 -9 12 -11 11 -11 -9 0 -19
-3 -22 -11 -14 -14 14 -4 46 13 41 6 -2 13 -11 16 -19z m-48 -54 c0 -14 -4
-25 -9 -25 -6 0 -8 36 -2 48 5 10 11 -2 11 -23z m945 -105 c14 -27 14 -35 0
-78 -9 -27 -14 -34 -11 -18 4 29 2 37 -22 83 -17 32 -15 40 4 17 15 -18 15
-18 9 4 -9 31 2 27 20 -8z m-51 -12 c1 -7 8 -24 15 -38 l14 -25 -25 23 c-26
24 -38 21 -38 -12 -1 -13 -6 -6 -15 19 -18 50 -18 50 0 31 19 -19 46 -10 38
12 -4 9 -3 14 1 10 4 -3 9 -12 10 -20z m-719 2 c-3 -5 -12 -10 -18 -10 -7 0
-6 4 3 10 19 12 23 12 15 0z m-5 -30 c0 -5 -5 -10 -11 -10 -5 0 -7 5 -4 10 3
6 8 10 11 10 2 0 4 -4 4 -10z m1810 -43 c0 -16 -18 3 -23 25 -6 22 -5 22 8 4
8 -11 15 -24 15 -29z m-1360 -31 c0 -2 -7 -7 -16 -10 -8 -3 -12 -2 -9 4 6 10
25 14 25 6z m1299 -25 c31 -30 66 -89 57 -98 -2 -3 -11 8 -19 24 -9 15 -29 41
-46 57 -28 27 -39 46 -26 46 2 0 18 -13 34 -29z m-1066 4 c-3 -9 -8 -14 -10
-11 -3 3 -2 9 2 15 9 16 15 13 8 -4z m465 -10 c-3 -3 -9 2 -12 12 -6 14 -5 15
5 6 7 -7 10 -15 7 -18z m486 -344 c54 -169 56 -215 20 -329 -19 -59 -107 -159
-267 -307 -136 -125 -148 -130 -201 -82 -26 24 -76 34 -76 15 0 -5 -4 -7 -10
-3 -5 3 -7 12 -3 20 4 11 -2 15 -20 15 -21 0 -24 4 -19 23 5 20 4 21 -11 8
-20 -16 -20 -16 -3 34 18 50 11 65 -26 65 -17 0 -28 5 -26 11 2 6 7 10 11 9
10 -1 87 93 81 99 -2 2 -14 -4 -26 -15 -19 -16 -20 -16 -9 -1 8 9 29 25 48 34
19 9 32 21 29 28 -2 7 7 18 21 26 13 7 29 21 34 30 5 9 28 27 52 38 43 21 139
112 135 128 -2 11 23 64 40 86 9 9 24 17 34 17 14 0 18 6 16 23 -2 16 3 23 19
25 19 3 21 7 13 27 -8 20 -7 23 8 18 15 -6 15 -5 2 11 -16 20 -23 49 -9 40 10
-6 12 7 9 44 -1 13 10 38 23 56 23 29 50 102 46 123 -3 20 2 27 11 13 8 -12
10 -10 11 10 1 14 6 -40 10 -119 6 -108 15 -163 33 -220z m-1450 330 c3 -5 0
-11 -7 -14 -8 -3 -14 1 -14 9 0 16 13 19 21 5z m867 -33 c-7 -19 -6 -29 7 -43
16 -16 16 -16 -6 -4 -12 8 -20 20 -17 27 3 8 5 25 5 40 0 18 3 23 10 16 7 -7
7 -19 1 -36z m-826 4 c-8 -8 -25 10 -19 20 4 6 9 5 15 -3 4 -7 6 -15 4 -17z
m138 21 c9 -9 -12 -33 -30 -33 -11 0 -11 4 -3 20 11 21 22 25 33 13z m397 -13
c0 -5 -5 -10 -11 -10 -5 0 -7 5 -4 10 3 6 8 10 11 10 2 0 4 -4 4 -10z m-623
-22 c-3 -8 -6 -5 -6 6 -1 11 2 17 5 13 3 -3 4 -12 1 -19z m424 -11 l-24 -22
19 27 c10 14 21 24 23 22 3 -3 -6 -15 -18 -27z m69 3 c0 -19 -24 -28 -33 -12
-2 4 -2 0 0 -8 2 -8 1 -11 -3 -7 -4 4 -13 2 -20 -4 -11 -9 -11 -16 3 -40 10
-16 21 -29 25 -29 4 0 8 -11 8 -25 0 -14 -4 -25 -10 -25 -5 0 -10 7 -10 15 0
8 -7 15 -15 15 -8 0 -15 5 -15 11 0 5 -4 7 -10 4 -5 -3 -10 1 -10 9 0 9 8 16
18 16 9 0 13 4 7 8 -30 22 8 77 63 91 1 1 2 -8 2 -19z m448 -5 c-3 -3 -9 2
-12 12 -6 14 -5 15 5 6 7 -7 10 -15 7 -18z m-807 -7 c-6 -16 -17 -23 -37 -24
l-29 -2 28 5 c19 3 27 9 23 18 -5 14 2 25 15 25 5 0 5 -10 0 -22z m-80 -18 c5
0 9 -4 9 -10 0 -24 -26 -7 -27 18 0 15 1 19 4 10 2 -10 9 -18 14 -18z m125 15
c-33 -18 -36 -18 -36 -6 0 9 21 18 50 20 8 0 2 -6 -14 -14z m364 11 c0 -2 -3
-11 -6 -20 -9 -23 -24 -20 -24 4 0 11 7 20 15 20 8 0 15 -2 15 -4z m-38 -67
c-11 -4 -12 -8 -4 -13 7 -4 12 -14 12 -23 0 -13 -3 -13 -15 -3 -8 7 -15 21
-15 31 0 11 -5 18 -11 17 -23 -5 -20 22 3 31 18 7 25 4 35 -13 9 -17 9 -22 -5
-27z m188 21 c0 -5 -4 -10 -10 -10 -5 0 -10 5 -10 10 0 6 5 10 10 10 6 0 10
-4 10 -10z m1020 -47 c35 -72 50 -106 50 -117 0 -5 6 -17 13 -25 25 -30 50
-112 38 -124 -8 -8 -11 -7 -11 6 0 9 -7 17 -16 17 -10 0 -14 6 -10 15 3 9 0
15 -9 15 -8 0 -15 7 -15 16 0 9 -9 18 -20 21 -22 6 -25 24 -10 53 7 13 7 21 0
25 -5 3 -10 1 -10 -6 0 -12 -15 -3 -15 9 -1 4 -6 16 -12 27 -6 11 -14 44 -18
74 -9 69 9 66 45 -6z m-1150 37 c0 -5 -4 -10 -10 -10 -5 0 -10 5 -10 10 0 6 5
10 10 10 6 0 10 -4 10 -10z m95 -19 c2 -22 -20 -18 -29 5 -3 9 -1 12 4 9 6 -3
10 -1 10 6 0 19 14 1 15 -20z m162 7 c-3 -8 -6 -5 -6 6 -1 11 2 17 5 13 3 -3
4 -12 1 -19z m-607 8 c0 -3 -4 -8 -10 -11 -5 -3 -10 -1 -10 4 0 6 5 11 10 11
6 0 10 -2 10 -4z m482 -41 c3 -16 1 -25 -7 -25 -7 0 -12 11 -11 25 1 32 12 32
18 0z m-476 1 c11 -11 11 -16 1 -19 -9 -4 -9 -8 1 -15 11 -7 11 -10 -2 -15
-11 -5 -16 -1 -16 13 0 11 -7 20 -15 20 -13 0 -14 3 -3 15 16 18 16 18 34 1z
m414 -12 c0 -8 -4 -14 -8 -14 -4 0 -8 9 -8 19 0 11 4 17 8 15 4 -3 8 -12 8
-20z m-78 -6 c-7 -7 -12 -8 -12 -2 0 14 12 26 19 19 2 -3 -1 -11 -7 -17z
m-192 -8 c0 -11 -4 -20 -9 -20 -5 0 -7 9 -4 20 3 11 7 20 9 20 2 0 4 -9 4 -20z
m149 -19 c0 -9 -4 -25 -8 -35 -6 -15 -10 -16 -16 -7 -4 8 -2 17 6 22 11 7 12
12 2 28 -11 17 -10 19 2 15 8 -4 15 -14 14 -23z m-303 -46 c-4 -24 -17 -23
-27 2 -5 14 -2 19 12 19 13 0 17 -6 15 -21z m71 -10 c0 -11 -4 -12 -14 -4 -7
6 -13 15 -13 20 0 5 6 6 13 3 8 -3 14 -11 14 -19z m-60 -47 c-3 -7 -5 -2 -5
12 0 14 2 19 5 13 2 -7 2 -19 0 -25z m1613 -138 c0 -5 -7 -10 -16 -10 -8 0
-12 5 -9 10 3 6 10 10 16 10 5 0 9 -4 9 -10z m-3 -55 c-4 -8 -11 -15 -17 -15
-7 0 -7 6 0 21 13 23 26 19 17 -6z m-634 -15 c-6 -23 -33 -49 -33 -31 0 9 30
51 36 51 1 0 0 -9 -3 -20z m701 -56 c4 -9 4 -26 0 -36 -6 -19 -6 -19 -26 2
-16 17 -17 24 -8 35 16 19 26 19 34 -1z m-1679 -324 c3 -5 1 -10 -4 -10 -6 0
-11 5 -11 10 0 6 2 10 4 10 3 0 8 -4 11 -10z m90 -27 c19 -13 19 -13 0 -13
-11 1 -31 7 -45 15 l-25 14 25 -1 c14 -1 34 -8 45 -15z m389 -67 c-10 -8 -21
-12 -24 -9 -3 2 4 11 14 19 11 7 22 12 25 9 2 -3 -4 -12 -15 -19z m1476 10 c0
-3 -4 -8 -10 -11 -5 -3 -10 -1 -10 4 0 6 5 11 10 11 6 0 10 -2 10 -4z m-1447
-26 c-10 -11 -19 -20 -21 -20 -1 0 2 9 8 20 6 11 15 20 20 20 6 0 2 -9 -7 -20z
m-33 -103 c0 -7 -14 -32 -32 -55 -32 -42 -69 -55 -84 -31 -9 16 17 59 36 59 9
0 27 9 40 20 27 23 40 25 40 7z m1160 -287 c0 -5 -4 -10 -10 -10 -5 0 -10 5
-10 10 0 6 5 10 10 10 6 0 10 -4 10 -10z m-495 -100 c3 -5 1 -10 -4 -10 -6 0
-11 5 -11 10 0 6 2 10 4 10 3 0 8 -4 11 -10z m67 -337 c26 -30 32 -81 12 -104
-38 -42 -94 -6 -94 59 0 21 5 43 12 50 17 17 53 15 70 -5z"/>
<path d="M2375 4060 c-3 -5 1 -10 10 -10 9 0 13 5 10 10 -3 6 -8 10 -10 10 -2
0 -7 -4 -10 -10z"/>
<path d="M2287 3913 c-3 -5 5 -8 18 -8 13 0 21 3 18 8 -2 4 -10 7 -18 7 -8 0
-16 -3 -18 -7z"/>
<path d="M2283 3875 c0 -12 3 -12 16 -3 9 7 18 14 20 15 2 2 -5 3 -16 3 -11 0
-20 -7 -20 -15z"/>
<path d="M2755 3714 c-17 -13 -37 -24 -46 -24 -9 0 -19 -3 -23 -7 -4 -5 -22
-14 -39 -21 -31 -11 -30 -12 18 -6 27 3 62 12 77 20 15 8 48 17 73 20 24 3 57
11 72 19 l28 15 -25 1 c-14 1 -43 3 -65 4 -30 2 -48 -3 -70 -21z"/>
<path d="M4299 3933 c18 -31 41 -57 46 -52 7 7 -33 69 -45 69 -7 0 -8 -5 -1
-17z"/>
<path d="M4296 3845 c-8 -27 -7 -80 0 -99 6 -15 8 -15 20 1 11 14 13 14 9 2
-3 -9 2 -22 11 -30 16 -13 17 -11 11 33 -4 26 -3 49 2 52 4 3 6 18 4 33 -4 22
-10 28 -28 28 -16 0 -26 -7 -29 -20z"/>
<path d="M4175 3780 c-3 -5 -1 -10 4 -10 6 0 11 5 11 10 0 6 -2 10 -4 10 -3 0
-8 -4 -11 -10z"/>
<path d="M3807 3739 c7 -7 15 -10 18 -7 3 3 -2 9 -12 12 -14 6 -15 5 -6 -5z"/>
<path d="M3890 3719 c0 -5 5 -7 10 -4 6 3 10 8 10 11 0 2 -4 4 -10 4 -5 0 -10
-5 -10 -11z"/>
<path d="M4323 3672 c-2 -37 -2 -37 9 -9 6 16 6 33 2 37 -5 5 -10 -7 -11 -28z"/>
<path d="M3481 3684 c0 -11 3 -14 6 -6 3 7 2 16 -1 19 -3 4 -6 -2 -5 -13z"/>
<path d="M3956 3641 c-3 -4 6 -6 19 -3 14 2 25 6 25 8 0 8 -39 4 -44 -5z"/>
<path d="M2106 2813 c-6 -14 -5 -15 5 -6 7 7 10 15 7 18 -3 3 -9 -2 -12 -12z"/>
<path d="M2332 2685 c0 -16 2 -22 5 -12 2 9 2 23 0 30 -3 6 -5 -1 -5 -18z"/>
<path d="M2390 2600 c0 -5 9 -14 20 -20 23 -12 26 -5 6 16 -17 16 -26 18 -26
4z"/>
<path d="M2393 2514 c1 -21 27 -23 27 -2 0 5 -4 7 -9 4 -5 -4 -11 0 -14 6 -3
7 -4 3 -4 -8z"/>
<path d="M4501 3364 c0 -11 3 -14 6 -6 3 7 2 16 -1 19 -3 4 -6 -2 -5 -13z"/>
<path d="M4508 3323 c7 -3 16 -2 19 1 4 3 -2 6 -13 5 -11 0 -14 -3 -6 -6z"/>
<path d="M3622 2370 c7 -11 17 -20 22 -20 5 0 1 9 -9 20 -10 11 -20 20 -22 20
-2 0 2 -9 9 -20z"/>
<path d="M3560 2315 c13 -14 25 -25 27 -25 9 0 -33 49 -41 50 -5 0 1 -11 14
-25z"/>
<path d="M3740 2321 c0 -6 4 -13 10 -16 6 -3 7 1 4 9 -7 18 -14 21 -14 7z"/>
<path d="M3452 2271 c18 -28 40 -53 48 -56 8 -3 4 5 -9 19 -14 15 -20 26 -14
26 8 0 8 7 0 24 -7 14 -14 23 -16 21 -2 -3 -12 0 -23 6 -14 8 -11 -2 14 -40z"/>
<path d="M3530 2311 c0 -5 7 -15 17 -22 15 -13 15 -12 4 9 -12 23 -21 28 -21
13z"/>
<path d="M3400 2306 c0 -2 8 -10 18 -17 15 -13 16 -12 3 4 -13 16 -21 21 -21
13z"/>
<path d="M2638 2283 c7 -3 16 -2 19 1 4 3 -2 6 -13 5 -11 0 -14 -3 -6 -6z"/>
<path d="M3230 2274 c0 -8 5 -12 10 -9 6 3 10 10 10 16 0 5 -4 9 -10 9 -5 0
-10 -7 -10 -16z"/>
<path d="M3105 2269 c-4 -6 -5 -12 -2 -15 2 -3 7 2 10 11 7 17 1 20 -8 4z"/>
<path d="M3512 2250 c7 -11 17 -20 22 -20 5 0 1 9 -9 20 -10 11 -20 20 -22 20
-2 0 2 -9 9 -20z"/>
<path d="M3692 2244 c-2 -26 12 -33 21 -10 3 8 0 19 -6 25 -10 7 -13 4 -15
-15z"/>
<path d="M3645 2229 c-5 -7 -1 -18 11 -26 24 -17 33 2 11 24 -11 12 -16 12
-22 2z"/>
<path d="M3690 2191 c0 -6 5 -13 10 -16 6 -3 10 1 10 9 0 9 -4 16 -10 16 -5 0
-10 -4 -10 -9z"/>
<path d="M3630 2185 c0 -15 18 -40 24 -34 3 3 -1 14 -9 25 -8 10 -14 15 -15 9z"/>
<path d="M2821 2154 c0 -11 3 -14 6 -6 3 7 2 16 -1 19 -3 4 -6 -2 -5 -13z"/>
<path d="M3520 2126 c0 -2 9 -6 20 -9 11 -3 18 -1 14 4 -5 9 -34 13 -34 5z"/>
<path d="M2880 5751 c0 -6 4 -13 10 -16 6 -3 7 1 4 9 -7 18 -14 21 -14 7z"/>
<path d="M3107 5752 c6 -4 13 -21 15 -37 2 -23 -1 -29 -12 -28 -10 2 -16 -5
-17 -18 -1 -15 2 -19 13 -15 11 4 15 0 14 -17 -4 -47 2 -62 11 -27 5 19 6 46
3 58 -3 15 -1 21 6 17 5 -3 10 -12 10 -20 0 -8 4 -16 9 -19 5 -4 7 4 3 16 -3
14 -2 19 6 14 7 -4 12 -3 12 3 0 14 -62 81 -75 81 -5 0 -5 -4 2 -8z m51 -68
c-4 -3 -12 5 -18 18 -12 22 -12 22 6 6 10 -10 15 -20 12 -24z"/>
<path d="M3165 5740 c3 -5 11 -10 16 -10 6 0 7 5 4 10 -3 6 -11 10 -16 10 -6
0 -7 -4 -4 -10z"/>
<path d="M3200 5745 c0 -15 18 -40 24 -34 3 3 -1 14 -9 25 -8 10 -14 15 -15 9z"/>
<path d="M3756 5718 c5 -7 0 -9 -14 -6 -19 5 -22 2 -22 -20 0 -15 4 -34 9 -41
8 -12 11 -9 17 14 7 28 8 28 15 7 5 -12 16 -22 24 -22 12 0 15 -6 10 -22 -7
-21 -6 -22 10 -7 16 16 16 19 -7 58 -12 22 -29 43 -36 46 -8 3 -10 0 -6 -7z"/>
<path d="M2900 5716 c0 -2 7 -21 16 -42 15 -35 15 -37 0 -25 -25 21 -20 -7 10
-54 24 -38 25 -38 18 -10 -3 17 -8 40 -9 52 -7 48 -17 83 -26 83 -5 0 -9 -2
-9 -4z"/>
<path d="M3250 5713 c0 -4 5 -15 10 -23 8 -13 10 -13 10 2 0 9 -4 20 -10 23
-5 3 -10 3 -10 -2z"/>
<path d="M3190 5692 c0 -31 12 -62 21 -56 15 9 10 61 -6 68 -10 3 -15 -1 -15
-12z"/>
<path d="M3571 5694 c0 -11 3 -14 6 -6 3 7 2 16 -1 19 -3 4 -6 -2 -5 -13z"/>
<path d="M3822 5667 c9 -23 9 -33 -2 -50 -12 -20 -12 -21 3 -9 9 8 21 11 27 7
6 -4 10 6 10 25 0 21 -4 30 -12 27 -7 -2 -19 3 -26 12 -10 13 -10 11 0 -12z"/>
<path d="M3682 5663 c-1 -12 -11 -40 -23 -62 -11 -23 -19 -46 -17 -52 4 -13
38 -22 36 -11 -1 4 2 23 6 43 4 19 6 51 3 70 -2 19 -5 24 -5 12z"/>
<path d="M3392 5650 c0 -14 2 -19 5 -12 2 6 2 18 0 25 -3 6 -5 1 -5 -13z"/>
<path d="M3751 5634 c0 -11 3 -14 6 -6 3 7 2 16 -1 19 -3 4 -6 -2 -5 -13z"/>
<path d="M3887 5627 c-3 -7 1 -24 9 -38 14 -25 19 -57 7 -46 -3 4 -12 -1 -19
-11 -16 -21 -17 -32 -3 -32 5 0 8 4 5 9 -3 5 1 11 9 15 10 3 17 -3 22 -22 6
-24 8 -22 14 21 10 67 -26 151 -44 104z"/>
<path d="M3516 5615 c-9 -26 -7 -32 5 -12 6 10 9 21 6 23 -2 3 -7 -2 -11 -11z"/>
<path d="M2884 5607 c3 -10 6 -25 6 -32 0 -7 6 -15 14 -18 20 -8 12 32 -10 52
-15 15 -16 14 -10 -2z"/>
<path d="M3421 5604 c0 -11 3 -14 6 -6 3 7 2 16 -1 19 -3 4 -6 -2 -5 -13z"/>
<path d="M3710 5595 c0 -8 4 -15 10 -15 5 0 7 7 4 15 -4 8 -8 15 -10 15 -2 0
-4 -7 -4 -15z"/>
<path d="M3432 5571 c-7 -19 -10 -36 -8 -38 8 -8 27 38 24 55 -3 11 -8 5 -16
-17z"/>
<path d="M3787 5593 c-4 -3 -7 -11 -7 -17 0 -6 5 -5 12 2 6 6 9 14 7 17 -3 3
-9 2 -12 -2z"/>
<path d="M2860 5569 c7 -11 14 -19 16 -16 7 7 -7 37 -17 37 -6 0 -5 -9 1 -21z"/>
<path d="M1549 5538 c-35 -23 -72 -41 -81 -39 -10 1 -18 -2 -18 -7 0 -11 98
-25 181 -25 67 0 132 26 127 51 -2 13 -103 57 -139 61 -3 1 -35 -18 -70 -41z"/>
<path d="M3990 5572 c0 -10 22 -32 32 -32 15 0 8 15 -12 28 -11 7 -20 9 -20 4z"/>
<path d="M3611 5528 c-13 -21 -15 -21 -20 -5 -6 17 -8 17 -26 -4 -11 -12 -14
-19 -7 -15 6 4 12 3 12 -2 0 -14 51 -1 57 14 10 25 -2 34 -16 12z"/>
<path d="M4044 5533 c-8 -2 -9 -18 -3 -48 11 -58 29 -90 53 -92 15 -1 17 4 12
29 -3 16 -15 41 -25 54 -11 14 -18 31 -15 39 6 15 -5 24 -22 18z"/>
<path d="M3685 5509 c-4 -13 -10 -17 -14 -11 -4 7 -12 8 -21 2 -8 -6 -11 -10
-7 -10 4 0 3 -9 -3 -20 -6 -11 -7 -20 -1 -20 5 0 11 7 15 15 8 21 27 19 20 -2
-3 -10 4 -2 15 17 23 39 25 50 12 50 -5 0 -13 -10 -16 -21z"/>
<path d="M3740 5499 c0 -5 5 -7 10 -4 6 3 10 8 10 11 0 2 -4 4 -10 4 -5 0 -10
-5 -10 -11z"/>
<path d="M3769 5481 c-16 -22 -25 -27 -31 -19 -5 10 -13 7 -30 -11 l-23 -23
25 7 c22 7 23 6 11 -9 -17 -20 -7 -21 24 0 24 15 59 73 51 81 -2 3 -14 -9 -27
-26z"/>
<path d="M3840 5457 l-33 -32 5 29 c6 28 6 28 -35 -12 -23 -23 -38 -45 -33
-49 4 -4 11 -1 15 6 7 11 9 11 13 0 4 -12 8 -11 23 1 17 14 18 13 12 -2 -5
-15 -1 -18 23 -18 17 0 30 5 30 12 0 6 6 19 14 27 7 9 16 27 20 41 4 18 2 16
-9 -7 -8 -18 -17 -33 -20 -33 -7 0 -1 32 9 48 16 27 -1 21 -34 -11z"/>
<path d="M3915 5395 c-22 -24 -42 -41 -45 -36 -3 5 -11 3 -18 -5 -10 -12 -10
-14 3 -14 8 0 15 -5 15 -11 0 -6 12 -9 28 -7 20 2 27 9 27 24 0 11 5 27 11 35
10 13 26 59 20 59 -1 0 -20 -20 -41 -45z"/>
<path d="M4156 5405 c4 -11 9 -45 12 -75 4 -60 17 -84 32 -60 16 25 12 63 -5
56 -11 -4 -15 2 -15 22 -1 15 -8 38 -16 52 -9 15 -12 17 -8 5z"/>
<path d="M4033 5380 c-7 -17 -16 -29 -21 -26 -4 2 -16 -8 -26 -25 -9 -16 -22
-29 -28 -29 -7 0 -6 5 2 15 19 23 1 39 -21 19 -23 -21 -25 -44 -3 -44 8 0 12
-5 8 -11 -15 -25 116 31 138 59 11 15 11 15 -3 5 -9 -7 -19 -10 -22 -6 -4 3
-14 0 -24 -8 -15 -13 -15 -12 1 13 10 15 16 37 14 49 -3 19 -5 17 -15 -11z"/>
<path d="M1082 5290 c-39 -61 -43 -67 -47 -87 -2 -10 -7 -28 -11 -40 -4 -14
-2 -23 4 -23 15 0 47 35 93 102 21 31 43 60 49 63 22 14 9 30 -25 30 -30 0
-38 -6 -63 -45z"/>
<path d="M4042 5293 c-14 -5 -37 -43 -25 -43 4 0 19 9 32 19 23 18 19 33 -7
24z"/>
<path d="M4123 5279 c-12 -4 -24 -17 -28 -28 -5 -17 -10 -19 -26 -11 -21 12
-39 6 -39 -12 0 -5 7 -7 16 -4 8 3 28 -1 44 -9 37 -19 76 -19 84 0 6 18 1 19
-25 5 -14 -8 -19 -7 -19 2 0 10 -2 10 -8 1 -4 -7 -13 -9 -21 -4 -10 7 -4 15
24 34 38 26 37 41 -2 26z"/>
<path d="M715 5224 c-20 -27 -25 -42 -21 -62 9 -37 9 -33 -8 -163 -16 -124
-31 -171 -81 -259 -17 -30 -40 -82 -51 -115 -16 -50 -31 -72 -90 -130 -41 -40
-75 -82 -78 -98 -10 -42 -39 -64 -103 -77 -32 -6 -65 -13 -75 -16 -11 -3 -29
-43 -53 -120 -33 -102 -36 -117 -23 -132 8 -9 23 -39 33 -66 15 -41 16 -54 5
-90 -13 -45 -50 -90 -91 -112 -22 -11 -29 -24 -38 -77 -6 -35 -11 -76 -11 -90
0 -26 2 -27 58 -27 43 0 72 -7 108 -25 27 -14 60 -25 73 -25 l24 0 -6 -117
c-7 -135 -23 -199 -73 -284 -34 -57 -35 -63 -29 -127 4 -37 13 -91 21 -120 16
-57 12 -214 -7 -304 -8 -36 -7 -59 4 -100 33 -117 29 -179 -14 -239 -10 -15
-19 -36 -19 -48 0 -33 75 -225 147 -373 74 -153 102 -182 108 -110 1 16 4 33
7 38 3 5 1 20 -4 34 -6 14 -12 39 -13 55 -2 17 -9 63 -15 103 -10 63 -9 81 5
124 9 27 20 102 25 166 6 65 14 144 19 177 6 33 12 112 15 175 3 72 13 141 26
185 11 39 25 115 31 170 16 150 20 163 71 221 30 34 33 42 30 92 -2 29 -7 65
-13 79 -5 13 -9 38 -9 54 0 16 -4 29 -10 29 -5 0 -10 7 -10 17 0 13 -21 46
-57 92 -2 3 -13 -4 -26 -15 -29 -25 -64 -44 -81 -44 -22 0 -65 72 -87 146 -11
38 -24 83 -30 99 -26 88 -16 204 26 300 7 17 24 55 38 86 14 31 28 70 32 87 7
35 46 64 78 60 23 -3 47 -19 42 -28 -2 -3 3 -20 11 -39 12 -28 16 -31 29 -21
28 23 74 115 81 160 3 25 7 55 9 67 2 13 7 28 11 34 4 7 8 58 9 115 1 57 7
109 13 116 15 18 38 93 46 146 8 54 34 105 81 162 33 39 56 80 59 102 1 3 4
10 9 14 15 16 6 24 -29 24 -26 0 -43 8 -66 31 -28 28 -30 34 -25 80 3 27 2 49
-2 49 -5 0 -21 -16 -36 -36z"/>
<path d="M4205 5189 c-4 -6 -5 -12 -2 -15 2 -3 7 2 10 11 7 17 1 20 -8 4z"/>
<path d="M4168 5159 c-10 -10 -13 -19 -7 -19 5 0 7 -5 4 -10 -4 -6 3 -9 17 -7
13 2 24 11 26 20 2 12 -1 15 -12 11 -12 -5 -15 -2 -10 10 8 20 3 19 -18 -5z"/>
<path d="M4373 5138 c0 -26 2 -32 4 -15 3 15 9 25 15 21 6 -4 6 2 -1 15 -7 11
-13 21 -15 21 -1 0 -3 -19 -3 -42z"/>
<path d="M4230 5158 c-1 -5 -3 -12 -4 -17 0 -5 -4 -13 -8 -17 -5 -4 -8 -12 -8
-18 0 -6 7 -3 16 6 9 8 14 24 11 34 -3 11 -6 16 -7 12z"/>
<path d="M4400 5110 c0 -19 3 -21 12 -12 9 9 9 15 0 24 -9 9 -12 7 -12 -12z"/>
<path d="M4252 5086 c-12 -14 -17 -26 -11 -26 5 0 7 -4 4 -10 -3 -5 1 -10 10
-10 9 0 13 5 10 10 -4 6 -1 17 5 25 22 26 5 36 -18 11z"/>
<path d="M4277 4999 c7 -7 15 -10 18 -7 3 3 -2 9 -12 12 -14 6 -15 5 -6 -5z"/>
<path d="M4502 4830 c0 -14 2 -19 5 -12 2 6 2 18 0 25 -3 6 -5 1 -5 -13z"/>
<path d="M4532 4670 c0 -19 2 -27 5 -17 2 9 2 25 0 35 -3 9 -5 1 -5 -18z"/>
<path d="M4517 4613 c-4 -3 -7 -11 -7 -17 0 -6 5 -5 12 2 6 6 9 14 7 17 -3 3
-9 2 -12 -2z"/>
<path d="M2458 4143 c7 -3 16 -2 19 1 4 3 -2 6 -13 5 -11 0 -14 -3 -6 -6z"/>
<path d="M1568 4003 c-22 -5 -32 -34 -16 -45 20 -12 42 -5 46 16 5 22 -7 34
-30 29z"/>
<path d="M2183 2058 c-12 -16 -63 -136 -63 -149 0 -9 -15 -44 -61 -145 -11
-22 -19 -47 -19 -55 0 -8 -4 -19 -10 -25 -5 -5 -17 -38 -26 -74 -21 -83 -50
-141 -74 -147 -11 -3 -22 -18 -25 -34 -9 -39 -23 -46 -41 -20 -16 23 -15 23
-83 -16 -2 -2 2 -10 9 -18 10 -13 11 -18 1 -28 -10 -9 -14 -8 -22 6 -10 16
-12 16 -41 -8 -25 -21 -36 -24 -65 -19 -32 6 -35 5 -29 -14 10 -30 -11 -65
-35 -59 -20 5 -33 -8 -34 -33 0 -8 -9 -16 -19 -18 -11 -2 -44 -17 -73 -33 -29
-16 -55 -29 -57 -29 -2 0 -3 11 -1 25 3 30 -2 31 -25 4 -10 -11 -31 -22 -47
-25 -15 -3 -39 -13 -53 -23 -14 -10 -35 -21 -47 -25 -12 -4 -24 -13 -27 -21
-3 -8 -15 -15 -26 -15 -11 0 -19 -6 -17 -12 1 -10 -16 -12 -65 -11 -57 1 -68
-1 -73 -17 -4 -12 -12 -16 -25 -13 -12 3 -20 0 -20 -6 0 -7 -4 -10 -8 -7 -4 2
-19 -4 -32 -15 l-25 -19 87 -83 c448 -433 1088 -747 1703 -836 239 -34 565
-54 565 -34 0 3 -14 28 -31 54 -29 45 -89 93 -178 141 -22 12 -31 25 -33 45 0
15 -2 33 -2 40 -1 6 -30 37 -66 68 -36 32 -84 74 -106 95 -23 20 -70 83 -104
141 -34 57 -97 153 -139 212 -42 60 -100 142 -128 183 -56 79 -173 275 -216
359 -50 101 -55 135 -58 416 -1 145 -5 274 -7 286 -5 26 -15 29 -29 11z m-223
-638 c0 -5 -2 -10 -4 -10 -3 0 -8 5 -11 10 -3 6 -1 10 4 10 6 0 11 -4 11 -10z
m350 -180 c0 -5 -2 -10 -4 -10 -3 0 -8 5 -11 10 -3 6 -1 10 4 10 6 0 11 -4 11
-10z m-545 -180 c-3 -5 -10 -10 -16 -10 -5 0 -9 5 -9 10 0 6 7 10 16 10 8 0
12 -4 9 -10z m-37 -71 c-2 -6 -8 -10 -13 -10 -5 0 -11 4 -13 10 -2 6 4 11 13
11 9 0 15 -5 13 -11z m172 -453 c0 -11 -19 -15 -25 -6 -3 5 1 10 9 10 9 0 16
-2 16 -4z m873 -121 c39 -46 51 -92 21 -81 -9 3 -21 6 -26 6 -6 0 -8 3 -5 7 4
3 -3 11 -14 17 -12 6 -31 28 -43 49 -18 31 -19 39 -7 46 20 13 33 6 74 -44z
m-925 11 c-7 -8 -16 -12 -21 -9 -11 7 2 23 19 23 12 0 12 -2 2 -14z m715 -118
c47 -37 16 -118 -46 -118 -38 0 -50 7 -66 37 -15 30 -14 36 10 67 23 29 73 36
102 14z"/>
<path d="M771 1845 c-41 -13 -95 -25 -120 -26 -31 -1 -61 -12 -92 -31 -47 -30
-47 -30 -36 -66 14 -46 53 -87 90 -94 15 -3 27 -2 27 3 0 4 11 6 25 4 20 -2
25 2 25 21 0 27 15 32 24 8 4 -9 2 -13 -5 -8 -7 4 -10 1 -7 -7 5 -16 28 -19
46 -6 14 11 42 -8 42 -28 0 -32 90 -33 138 -2 7 5 27 7 44 5 27 -3 34 2 50 30
10 18 36 50 58 71 53 50 51 70 -9 100 -103 49 -202 58 -300 26z"/>
<path d="M1327 1793 c-4 -3 -7 -12 -7 -19 0 -14 68 -84 82 -84 6 0 8 -7 4 -15
-3 -8 -2 -14 2 -14 20 3 33 -2 27 -11 -3 -5 1 -10 9 -10 8 0 18 5 21 10 4 6
10 8 15 5 5 -3 11 -1 14 4 3 5 14 7 24 4 20 -5 66 42 68 70 1 13 -6 17 -32 17
-19 0 -34 4 -34 8 0 4 -12 9 -27 10 -16 1 -41 6 -58 11 -48 15 -101 22 -108
14z"/>
<path d="M1495 1230 c4 -6 11 -8 16 -5 14 9 11 15 -7 15 -8 0 -12 -5 -9 -10z"/>
<path d="M1456 1195 c4 -8 10 -15 14 -15 4 0 10 7 14 15 4 10 -1 15 -14 15
-13 0 -18 -5 -14 -15z"/>
<path d="M3350 1110 c0 -5 5 -10 11 -10 5 0 7 5 4 10 -3 6 -8 10 -11 10 -2 0
-4 -4 -4 -10z"/>
<path d="M3195 1030 c-3 -6 1 -7 9 -4 18 7 21 14 7 14 -6 0 -13 -4 -16 -10z"/>
</g>
</svg>
