<?xml version="1.0" encoding="UTF-8" standalone="no"?>
<!DOCTYPE svg PUBLIC "-//W3C//DTD SVG 1.1//EN" "http://www.w3.org/Graphics/SVG/1.1/DTD/svg11.dtd">
<svg width="100%" height="100%" viewBox="0 0 567 108" preserveAspectRatio="xMinYMid" version="1.1" xmlns="http://www.w3.org/2000/svg" xmlns:xlink="http://www.w3.org/1999/xlink" xml:space="preserve" xmlns:serif="http://www.serif.com/" style="fill-rule:evenodd;clip-rule:evenodd;stroke-linejoin:round;stroke-miterlimit:2;">
    <g transform="matrix(1,0,0,1,-144.865,-94.4246)">
        <g>
            <g transform="matrix(120,0,0,120,136.465,179.385)">
                <path d="M0.342,-0.646C0.411,-0.646 0.465,-0.629 0.503,-0.594C0.54,-0.559 0.559,-0.51 0.559,-0.446C0.559,-0.396 0.548,-0.352 0.525,-0.315C0.502,-0.277 0.47,-0.248 0.429,-0.227C0.388,-0.206 0.34,-0.196 0.285,-0.196L0.227,-0.196L0.233,-0L0.07,-0L0.079,-0.191L0.07,-0.645L0.342,-0.646ZM0.314,-0.313C0.339,-0.322 0.358,-0.335 0.371,-0.355C0.383,-0.374 0.389,-0.399 0.389,-0.43C0.389,-0.463 0.381,-0.488 0.365,-0.504C0.348,-0.52 0.323,-0.529 0.288,-0.53L0.234,-0.527L0.229,-0.317L0.314,-0.313Z" style="fill-rule:nonzero;"/>
            </g>
            <g transform="matrix(120,0,0,120,206.065,179.385)">
                <path d="M0.332,-0L0.341,-0.279C0.341,-0.325 0.322,-0.348 0.285,-0.348C0.263,-0.348 0.238,-0.338 0.209,-0.318L0.207,-0.207L0.214,-0L0.056,-0L0.064,-0.192L0.058,-0.691L0.215,-0.702L0.21,-0.401L0.216,-0.401C0.253,-0.436 0.292,-0.46 0.335,-0.474C0.386,-0.474 0.424,-0.463 0.451,-0.44C0.477,-0.417 0.489,-0.384 0.488,-0.341L0.485,-0.207L0.491,-0L0.332,-0Z" style="fill-rule:nonzero;"/>
            </g>
            <g transform="matrix(120,0,0,120,270.865,179.385)">
                <path d="M0.062,-0.191L0.057,-0.458L0.214,-0.47L0.207,-0.207L0.213,-0L0.055,-0L0.062,-0.191ZM0.138,-0.708C0.163,-0.708 0.182,-0.701 0.196,-0.687C0.209,-0.673 0.216,-0.654 0.216,-0.629C0.216,-0.602 0.208,-0.581 0.193,-0.566C0.178,-0.55 0.157,-0.542 0.132,-0.542C0.107,-0.542 0.087,-0.549 0.074,-0.563C0.061,-0.577 0.054,-0.597 0.054,-0.622C0.054,-0.648 0.062,-0.669 0.077,-0.685C0.092,-0.7 0.112,-0.708 0.138,-0.708Z" style="fill-rule:nonzero;"/>
            </g>
            <g transform="matrix(120,0,0,120,303.385,179.385)">
                <path d="M0.207,-0.207L0.214,-0L0.056,-0L0.064,-0.192L0.058,-0.691L0.215,-0.702L0.207,-0.207Z" style="fill-rule:nonzero;"/>
            </g>
            <g transform="matrix(120,0,0,120,335.905,179.385)">
                <path d="M0.062,-0.191L0.057,-0.458L0.214,-0.47L0.207,-0.207L0.213,-0L0.055,-0L0.062,-0.191ZM0.138,-0.708C0.163,-0.708 0.182,-0.701 0.196,-0.687C0.209,-0.673 0.216,-0.654 0.216,-0.629C0.216,-0.602 0.208,-0.581 0.193,-0.566C0.178,-0.55 0.157,-0.542 0.132,-0.542C0.107,-0.542 0.087,-0.549 0.074,-0.563C0.061,-0.577 0.054,-0.597 0.054,-0.622C0.054,-0.648 0.062,-0.669 0.077,-0.685C0.092,-0.7 0.112,-0.708 0.138,-0.708Z" style="fill-rule:nonzero;"/>
            </g>
            <g transform="matrix(120,0,0,120,367.585,179.385)">
                <path d="M0.316,-0.474C0.374,-0.474 0.419,-0.454 0.451,-0.415C0.483,-0.375 0.499,-0.319 0.499,-0.246C0.499,-0.164 0.478,-0.101 0.438,-0.056C0.397,-0.011 0.338,0.011 0.263,0.011C0.247,0.011 0.228,0.009 0.207,0.006L0.21,0.185L0.053,0.185L0.06,-0.191L0.053,-0.458L0.204,-0.47L0.204,-0.401L0.211,-0.401C0.228,-0.419 0.245,-0.434 0.262,-0.445C0.278,-0.456 0.296,-0.466 0.316,-0.474ZM0.26,-0.09C0.321,-0.09 0.351,-0.134 0.351,-0.223C0.35,-0.306 0.324,-0.348 0.271,-0.348C0.249,-0.348 0.226,-0.338 0.203,-0.319L0.203,-0.207L0.205,-0.1C0.226,-0.093 0.245,-0.09 0.26,-0.09Z" style="fill-rule:nonzero;"/>
            </g>
            <g transform="matrix(120,0,0,120,447.745,179.385)">
                <path d="M0.268,-0.213L0.27,-0.122C0.27,-0.083 0.264,-0.049 0.251,-0.022C0.238,0.006 0.216,0.03 0.186,0.051C0.156,0.072 0.115,0.091 0.062,0.109L0.016,0.024L0.016,0.01C0.055,-0.009 0.082,-0.029 0.097,-0.049C0.112,-0.069 0.12,-0.095 0.12,-0.126L0.12,-0.197L0.114,-0.529L0.017,-0.526L0.007,-0.537L0.014,-0.645L0.277,-0.645L0.268,-0.213Z" style="fill-rule:nonzero;"/>
            </g>
            <g transform="matrix(120,0,0,120,486.865,179.385)">
                <path d="M0.255,-0.478C0.326,-0.478 0.38,-0.458 0.417,-0.418C0.454,-0.378 0.472,-0.32 0.472,-0.243C0.472,-0.16 0.452,-0.097 0.413,-0.054C0.373,-0.011 0.315,0.011 0.24,0.011C0.169,0.011 0.116,-0.009 0.079,-0.049C0.042,-0.089 0.023,-0.147 0.023,-0.223C0.023,-0.306 0.043,-0.369 0.083,-0.413C0.122,-0.456 0.18,-0.478 0.255,-0.478ZM0.244,-0.371C0.217,-0.371 0.199,-0.362 0.188,-0.345C0.177,-0.327 0.171,-0.296 0.171,-0.252C0.171,-0.211 0.173,-0.18 0.179,-0.157C0.184,-0.133 0.192,-0.117 0.204,-0.108C0.215,-0.098 0.231,-0.093 0.251,-0.093C0.277,-0.093 0.296,-0.102 0.307,-0.12C0.318,-0.137 0.323,-0.168 0.323,-0.213C0.323,-0.272 0.317,-0.314 0.306,-0.337C0.294,-0.36 0.273,-0.371 0.244,-0.371Z" style="fill-rule:nonzero;"/>
            </g>
            <g transform="matrix(120,0,0,120,545.905,179.385)">
                <path d="M0.336,-0.279C0.337,-0.325 0.319,-0.348 0.28,-0.348C0.257,-0.348 0.231,-0.338 0.204,-0.318L0.204,-0.207L0.211,-0L0.053,-0L0.06,-0.191L0.054,-0.458L0.205,-0.47L0.205,-0.401L0.211,-0.401C0.247,-0.435 0.287,-0.459 0.331,-0.474C0.381,-0.474 0.419,-0.463 0.446,-0.44C0.472,-0.417 0.485,-0.384 0.484,-0.341L0.48,-0.207L0.486,-0L0.328,-0L0.336,-0.279Z" style="fill-rule:nonzero;"/>
            </g>
            <g transform="matrix(120,0,0,120,610.105,179.385)">
                <path d="M0.43,-0.208L0.168,-0.206C0.173,-0.171 0.185,-0.146 0.204,-0.129C0.223,-0.112 0.251,-0.104 0.286,-0.104C0.321,-0.104 0.368,-0.114 0.426,-0.135L0.438,-0.127L0.414,-0.014C0.361,0.003 0.312,0.011 0.269,0.011C0.192,0.011 0.132,-0.011 0.089,-0.054C0.045,-0.097 0.023,-0.157 0.023,-0.233C0.023,-0.309 0.044,-0.369 0.086,-0.413C0.128,-0.456 0.185,-0.478 0.257,-0.478C0.319,-0.478 0.367,-0.461 0.402,-0.428C0.436,-0.395 0.453,-0.348 0.453,-0.289C0.453,-0.27 0.451,-0.249 0.447,-0.228L0.43,-0.208ZM0.316,-0.306C0.316,-0.352 0.296,-0.375 0.256,-0.375C0.233,-0.375 0.215,-0.368 0.2,-0.353C0.185,-0.337 0.175,-0.316 0.17,-0.288L0.314,-0.292L0.316,-0.306Z" style="fill-rule:nonzero;"/>
            </g>
            <g transform="matrix(120,0,0,120,667.345,179.385)">
                <path d="M0.223,-0.477C0.271,-0.477 0.316,-0.469 0.359,-0.453L0.339,-0.34L0.32,-0.334C0.299,-0.347 0.278,-0.358 0.258,-0.365C0.237,-0.372 0.22,-0.376 0.205,-0.376C0.192,-0.376 0.181,-0.373 0.174,-0.367C0.167,-0.36 0.163,-0.353 0.163,-0.344C0.163,-0.332 0.169,-0.322 0.181,-0.315C0.193,-0.307 0.211,-0.298 0.236,-0.289C0.264,-0.278 0.287,-0.267 0.304,-0.257C0.321,-0.247 0.337,-0.233 0.35,-0.215C0.363,-0.197 0.369,-0.174 0.369,-0.147C0.369,-0.119 0.362,-0.093 0.348,-0.069C0.334,-0.045 0.312,-0.026 0.283,-0.011C0.253,0.004 0.216,0.011 0.172,0.011C0.123,0.011 0.07,0.002 0.015,-0.017L0.034,-0.137L0.048,-0.147C0.07,-0.129 0.094,-0.115 0.122,-0.104C0.149,-0.093 0.172,-0.088 0.191,-0.088C0.206,-0.088 0.217,-0.091 0.225,-0.098C0.232,-0.105 0.236,-0.113 0.236,-0.123C0.236,-0.134 0.23,-0.144 0.219,-0.152C0.207,-0.159 0.188,-0.168 0.163,-0.178C0.136,-0.189 0.113,-0.199 0.095,-0.209C0.077,-0.219 0.062,-0.233 0.049,-0.252C0.036,-0.27 0.029,-0.293 0.029,-0.321C0.029,-0.367 0.046,-0.405 0.081,-0.434C0.116,-0.463 0.163,-0.477 0.223,-0.477Z" style="fill-rule:nonzero;"/>
            </g>
        </g>
    </g>
</svg>
